<svg xmlns="http://www.w3.org/2000/svg" xmlns:v="https://svgstorm.com"
viewBox = "0 0 578 216"
width="578"
height="216">
<g fill="None" fill-opacity="0.0" stroke="#FBFBFA" stroke-opacity="1.00" stroke-width="0.3"><path d="
M 0.00 216.00 
L 578.00 216.00
L 578.00 141.00
C 571.47 154.78 555.99 164.80 540.78 163.78 C 525.57 162.76 509.15 150.18 508.01 133.99 C 506.87 117.80 512.45 97.81 528.25 91.25 C 544.05 84.68 564.06 90.20 576.00 100.00
C 576.61 102.22 574.38 107.04 578.00 107.00
L 578.00 0.00
L 92.00 0.00
C 109.01 2.83 122.64 12.42 131.75 26.25 C 140.86 40.07 138.75 63.87 133.00 79.00
C 127.26 81.40 124.56 87.57 119.00 92.00
C 131.56 88.06 151.87 86.12 162.23 95.77 C 172.59 105.42 177.42 123.10 172.00 135.00
C 169.64 147.20 157.81 159.30 145.00 160.00
C 137.32 161.64 133.27 162.36 126.00 160.00
C 117.15 159.20 108.59 151.51 105.00 144.00
C 101.15 143.68 102.92 148.73 101.00 150.00
C 100.39 147.91 97.33 141.95 102.00 144.00
C 102.01 129.94 95.74 113.42 108.00 103.00
C 100.66 100.96 88.97 104.55 80.00 105.00 C 71.03 105.45 52.79 100.34 52.00 111.00 C 51.21 121.66 53.57 132.56 52.00 143.00
C 44.17 148.91 37.13 161.11 25.00 160.00
C 24.51 159.95 24.00 160.00 24.00 160.00
C 19.19 163.56 9.80 159.41 4.00 161.00
C -0.67 151.32 6.27 141.92 3.00 131.00 C -0.27 120.08 3.16 109.85 16.00 113.00 C 28.84 116.15 19.75 130.31 23.00 140.00
C 29.70 139.13 32.34 130.17 32.00 124.00 C 31.66 117.83 34.54 106.21 27.00 105.00 C 19.45 103.79 9.31 108.62 4.25 103.75 C -0.80 98.87 4.60 85.28 4.00 80.00
C 4.00 74.67 4.00 69.33 4.00 64.00
C 2.72 50.78 6.83 35.05 21.25 29.25 C 35.67 23.44 58.11 28.36 73.00 27.00 C 87.89 25.64 106.22 30.05 108.00 46.00
C 108.40 49.56 107.50 53.19 107.00 56.00
C 106.25 66.96 97.93 73.43 88.00 76.00
C 76.59 78.96 62.27 77.13 52.00 77.00
C 49.28 89.04 65.53 84.09 73.00 85.00 C 80.47 85.91 95.30 85.56 96.00 79.00
C 108.26 80.99 113.50 66.13 115.92 55.92 C 118.35 45.72 111.50 28.22 101.00 29.00
C 93.65 15.94 76.12 21.04 62.00 20.00 C 47.88 18.96 29.37 22.24 16.00 18.00
C 15.91 11.63 18.65 7.88 16.00 2.00
C 17.28 2.27 18.72 1.23 19.00 0.00
L 0.00 0.00
L 0.00 216.00
M 336.00 99.00 
C 336.51 112.43 329.81 110.39 319.00 111.00
C 317.63 111.69 317.40 114.77 315.00 114.00
C 314.63 129.26 316.75 145.59 313.00 160.00
C 302.27 161.36 290.97 161.46 293.00 149.00 C 295.03 136.54 291.48 129.02 293.00 117.00
C 288.86 107.95 275.69 116.12 272.08 106.92 C 268.48 97.71 273.22 86.47 284.00 90.00 C 294.78 93.52 304.56 88.02 315.00 90.00 C 325.44 91.98 337.03 85.62 336.00 99.00
M 402.00 113.00 
C 401.43 114.03 387.71 114.06 393.00 120.00
C 394.95 120.65 396.11 121.10 398.00 122.00
C 399.09 122.52 400.85 121.60 402.00 122.00
C 409.71 135.08 406.18 155.92 391.75 162.75 C 377.32 169.58 354.68 164.42 349.00 150.00
C 348.90 149.52 349.00 149.00 349.00 149.00
C 344.03 146.74 347.68 136.44 350.00 134.00
C 354.08 135.96 361.95 135.58 360.00 129.00
C 356.91 128.89 355.48 128.08 354.00 125.00
C 350.18 119.04 351.07 113.67 352.00 107.00
C 352.90 100.58 355.16 94.39 362.03 92.03 C 368.90 89.66 376.71 89.73 384.00 89.00 C 391.29 88.27 396.33 94.12 399.19 97.25 C 402.05 100.39 408.89 112.94 402.00 113.00
M 488.00 155.00 
C 487.67 156.25 488.25 157.73 488.00 159.00
C 481.77 160.92 475.80 162.14 469.00 160.00 C 462.20 157.86 467.24 146.96 466.00 142.00
C 463.16 135.99 450.86 139.77 447.00 142.00
C 446.72 143.28 447.76 145.50 446.00 146.00
C 446.66 158.09 443.15 163.13 429.00 160.00
C 418.95 157.77 425.71 138.08 424.00 129.00 C 422.29 119.92 426.05 103.31 423.00 94.00
C 428.42 89.43 434.78 88.80 442.01 90.01 C 449.23 91.21 446.15 103.47 447.00 110.00 C 447.85 116.53 459.45 113.82 465.00 113.00
C 468.74 106.23 460.86 95.37 467.75 91.75 C 474.63 88.12 483.34 88.23 490.00 92.00
C 487.15 112.37 490.89 135.05 488.00 155.00
M 224.00 144.00 
C 220.54 142.73 219.19 148.94 216.00 146.00
C 215.79 149.01 214.44 151.77 215.00 155.00
C 213.27 164.28 198.88 159.52 192.00 158.00
C 192.00 136.00 192.00 114.00 192.00 92.00
C 198.84 88.83 207.08 89.73 214.00 92.00
C 219.91 101.44 222.33 101.20 227.92 112.08 C 233.51 122.97 236.88 100.79 232.00 95.00
C 237.20 89.71 257.04 85.57 256.93 97.07 C 256.81 108.58 256.86 121.10 257.00 133.00 C 257.14 144.90 259.95 159.57 246.00 160.00 C 232.05 160.43 230.63 153.60 224.00 144.00
M 182.00 192.00 
C 180.85 194.71 179.82 197.52 178.00 200.00
C 179.20 202.64 185.44 206.11 184.00 211.00
C 181.17 212.26 175.02 213.16 176.00 208.00
C 171.46 206.24 166.29 215.16 162.31 210.69 C 158.32 206.23 167.12 202.31 167.00 198.00
C 162.54 196.46 161.42 190.69 162.00 186.00
C 168.74 180.76 168.04 191.22 175.00 190.00
C 175.46 182.64 188.66 186.86 182.00 192.00
M 57.00 192.00 
C 53.68 188.50 43.70 195.40 49.09 195.92 C 54.47 196.43 59.59 199.16 51.97 201.97 C 44.36 204.78 49.01 203.98 55.00 206.00 C 60.99 208.02 51.41 213.65 48.00 212.00 C 44.59 210.35 38.04 215.46 38.08 207.92 C 38.11 200.38 37.26 199.20 38.00 191.00 C 38.74 182.80 57.93 181.83 57.00 192.00
M 125.00 185.00 
C 136.46 182.56 141.16 190.75 141.00 201.00 C 140.84 211.25 128.98 214.87 120.92 209.08 C 112.86 203.29 116.39 186.83 125.00 185.00
M 284.00 202.00 
C 283.88 201.99 277.97 196.41 279.00 195.00
C 283.00 193.73 284.67 197.62 286.00 200.00
C 287.40 199.39 289.54 200.46 291.00 200.00
C 295.98 208.10 287.08 214.69 279.00 214.00 C 270.92 213.30 263.54 203.62 267.00 195.00 C 270.46 186.38 275.82 183.88 285.67 186.33 C 295.52 188.77 289.43 204.73 283.00 192.00
C 272.84 191.36 276.67 209.90 284.00 202.00
M 531.00 198.00 
C 542.83 206.86 527.78 215.84 517.78 212.22 C 507.78 208.61 508.32 194.67 514.75 187.75 C 521.18 180.83 540.46 187.72 531.00 198.00
M 87.00 203.00 
C 85.38 204.06 85.59 204.26 85.00 206.00
C 84.99 206.05 85.10 217.57 80.33 212.67 C 75.55 207.77 75.55 195.11 77.98 188.98 C 80.40 182.84 97.00 184.76 97.97 191.03 C 98.94 197.30 99.86 196.20 96.75 201.75 C 93.65 207.30 90.30 202.01 87.00 203.00
M 327.00 186.00 
C 342.52 189.61 336.91 216.49 321.00 212.00 C 305.09 207.51 311.05 182.29 327.00 186.00
M 370.00 186.00 
C 375.04 187.97 373.18 199.00 376.93 202.07 C 380.67 205.15 377.69 219.37 371.25 210.75 C 364.81 202.13 366.81 210.93 359.97 212.97 C 353.13 215.01 356.15 202.23 358.32 198.32 C 360.49 194.42 361.66 182.73 370.00 186.00
M 419.00 192.00 
C 416.03 191.71 415.02 194.57 412.00 195.00
C 414.63 200.96 410.85 216.50 404.75 210.25 C 398.66 203.99 409.77 191.76 397.00 192.00
C 395.14 182.54 419.93 182.71 419.00 192.00
M 481.00 196.00 
C 480.95 194.78 483.09 181.77 487.67 186.33 C 492.25 190.89 492.25 209.28 485.92 212.92 C 479.60 216.57 480.26 203.96 475.00 206.00
C 475.70 216.43 464.25 210.68 467.00 204.00 C 469.75 197.32 462.66 190.22 469.25 186.25 C 475.84 182.28 478.23 193.12 481.00 196.00
M 212.00 192.00 
C 214.80 190.54 222.95 183.34 223.97 190.03 C 224.99 196.71 215.98 196.39 217.22 203.22 C 218.47 210.06 211.11 215.04 210.01 206.99 C 208.91 198.95 208.36 199.31 204.23 192.77 C 200.10 186.23 211.35 184.88 212.00 192.00
M 444.00 187.00 
C 447.21 189.08 443.57 197.94 445.00 201.00 C 446.43 204.06 444.57 213.45 440.33 210.67 C 436.09 207.88 440.57 200.18 439.00 197.00 C 437.43 193.82 439.24 183.91 444.00 187.00 Z"/>
</g>
<g fill="None" fill-opacity="0.0" stroke="#FBF2D6" stroke-opacity="1.00" stroke-width="0.3"><path d="
M 88.00 76.00 
C 75.67 77.64 70.09 74.54 57.00 76.00 C 43.91 77.46 52.13 89.79 63.00 87.00 C 73.87 84.21 83.75 88.72 93.01 86.01 C 102.26 83.29 105.72 80.36 111.75 73.75 C 117.79 67.15 119.76 58.50 119.00 50.00 C 118.24 41.50 115.88 34.32 109.75 28.25 C 103.62 22.18 98.29 18.70 88.98 18.02 C 79.67 17.35 67.02 18.34 57.00 18.00 C 46.98 17.66 36.47 18.25 26.00 18.00 C 15.53 17.75 18.24 -0.65 29.00 2.00 C 39.76 4.65 49.96 0.37 60.00 2.00 C 70.04 3.63 81.86 0.29 91.00 2.00 C 100.14 3.71 106.34 6.15 113.74 10.26 C 121.15 14.37 124.06 19.48 128.77 26.23 C 133.48 32.98 134.79 43.45 135.00 52.00 C 135.21 60.55 134.11 70.41 129.08 77.08 C 124.04 83.74 121.81 88.67 114.75 93.75 C 107.69 98.84 101.58 101.33 92.00 102.00 C 82.42 102.67 73.50 105.09 62.00 103.00 C 50.50 100.91 47.91 111.54 50.00 122.00 C 52.09 132.46 47.85 138.95 44.23 147.23 C 40.61 155.51 30.63 155.43 25.00 160.00
C 37.13 161.11 44.17 148.91 52.00 143.00
C 53.57 132.56 51.21 121.66 52.00 111.00 C 52.79 100.34 71.03 105.45 80.00 105.00 C 88.97 104.55 100.66 100.96 108.00 103.00
C 95.74 113.42 102.01 129.94 102.00 144.00
C 97.33 141.95 100.39 147.91 101.00 150.00
C 102.92 148.73 101.15 143.68 105.00 144.00
C 94.99 123.07 106.49 93.26 132.00 91.00 C 157.52 88.74 177.23 107.89 172.00 135.00
C 177.42 123.10 172.59 105.42 162.23 95.77 C 151.87 86.12 131.56 88.06 119.00 92.00
C 124.56 87.57 127.26 81.40 133.00 79.00
C 138.75 63.87 140.86 40.07 131.75 26.25 C 122.64 12.42 109.01 2.83 92.00 0.00
L 19.00 0.00
C 18.72 1.23 17.28 2.27 16.00 2.00
C 18.65 7.88 15.91 11.63 16.00 18.00
C 29.37 22.24 47.88 18.96 62.00 20.00 C 76.12 21.04 93.65 15.94 101.00 29.00
C 111.50 28.22 118.35 45.72 115.92 55.92 C 113.50 66.13 108.26 80.99 96.00 79.00
C 95.30 85.56 80.47 85.91 73.00 85.00 C 65.53 84.09 49.28 89.04 52.00 77.00
C 62.27 77.13 76.59 78.96 88.00 76.00 Z"/>
</g>
<g fill="None" fill-opacity="0.0" stroke="#ECC782" stroke-opacity="1.00" stroke-width="0.3"><path d="
M 88.00 76.00 
C 97.93 73.43 106.25 66.96 107.00 56.00
C 107.73 45.35 101.50 34.06 91.00 31.00
C 98.28 34.21 104.34 43.41 104.78 51.22 C 105.22 59.03 101.21 71.10 90.98 71.98 C 80.74 72.85 71.35 77.40 59.00 74.00 C 46.65 70.60 44.16 90.70 56.00 90.00 C 67.84 89.29 78.23 88.99 89.00 89.00 C 99.77 89.01 103.71 82.28 111.25 76.25 C 118.78 70.22 121.12 60.44 121.00 51.00 C 120.88 41.56 116.84 34.35 110.75 27.25 C 104.65 20.16 96.69 16.40 87.00 16.00 C 77.31 15.60 62.07 17.96 53.00 16.00 C 43.93 14.04 24.77 22.47 22.01 11.99 C 19.25 1.51 40.43 3.61 49.00 4.00 C 57.57 4.39 73.77 3.72 83.00 4.00 C 92.23 4.28 103.78 6.09 110.68 11.32 C 117.58 16.55 122.08 21.93 127.25 28.75 C 132.42 35.58 133.93 49.67 133.00 58.00 C 132.07 66.33 128.68 78.51 120.00 80.00
C 124.86 86.55 115.77 88.97 110.92 91.92 C 106.07 94.87 100.60 98.40 93.98 99.98 C 87.35 101.55 75.77 100.46 69.00 101.00 C 62.23 101.54 49.53 97.91 48.01 105.01 C 46.49 112.11 47.33 122.01 47.00 129.00 C 46.67 135.99 46.15 144.52 41.08 149.08 C 36.01 153.64 31.29 155.91 25.00 156.00 C 18.71 156.09 9.10 161.41 7.03 153.97 C 4.95 146.54 9.48 136.77 7.00 129.00 C 4.52 121.23 10.46 111.51 17.25 117.75 C 24.03 124.00 15.69 135.60 19.00 142.00 C 22.31 148.40 31.59 144.99 34.25 138.25 C 36.92 131.52 33.13 121.62 35.00 113.00 C 36.87 104.38 30.78 99.15 21.00 102.00 C 11.22 104.85 4.86 101.00 6.00 92.00 C 7.14 83.00 5.61 74.45 6.00 66.00 C 6.39 57.55 5.99 51.77 9.92 44.92 C 13.86 38.08 19.93 37.80 24.00 33.00
C 17.60 35.67 12.36 37.72 8.75 44.75 C 5.13 51.77 4.48 60.33 5.00 69.00 C 5.52 77.67 4.30 88.07 5.00 97.00 C 5.70 105.93 17.54 103.90 27.00 103.00 C 36.46 102.10 33.88 117.49 34.00 124.00 C 34.12 130.51 33.29 142.81 25.00 143.00
C 23.67 143.03 22.33 142.98 21.00 143.00
C 22.59 135.92 18.87 127.99 21.00 121.00 C 23.13 114.01 10.43 110.59 6.33 114.33 C 2.23 118.07 5.61 129.17 5.00 135.00 C 4.39 140.83 4.49 150.77 5.00 157.00 C 5.51 163.23 19.80 158.55 24.00 160.00
C 24.00 160.00 24.51 159.95 25.00 160.00
C 30.63 155.43 40.61 155.51 44.23 147.23 C 47.85 138.95 52.09 132.46 50.00 122.00 C 47.91 111.54 50.50 100.91 62.00 103.00 C 73.50 105.09 82.42 102.67 92.00 102.00 C 101.58 101.33 107.69 98.84 114.75 93.75 C 121.81 88.67 124.04 83.74 129.08 77.08 C 134.11 70.41 135.21 60.55 135.00 52.00 C 134.79 43.45 133.48 32.98 128.77 26.23 C 124.06 19.48 121.15 14.37 113.74 10.26 C 106.34 6.15 100.14 3.71 91.00 2.00 C 81.86 0.29 70.04 3.63 60.00 2.00 C 49.96 0.37 39.76 4.65 29.00 2.00 C 18.24 -0.65 15.53 17.75 26.00 18.00 C 36.47 18.25 46.98 17.66 57.00 18.00 C 67.02 18.34 79.67 17.35 88.98 18.02 C 98.29 18.70 103.62 22.18 109.75 28.25 C 115.88 34.32 118.24 41.50 119.00 50.00 C 119.76 58.50 117.79 67.15 111.75 73.75 C 105.72 80.36 102.26 83.29 93.01 86.01 C 83.75 88.72 73.87 84.21 63.00 87.00 C 52.13 89.79 43.91 77.46 57.00 76.00 C 70.09 74.54 75.67 77.64 88.00 76.00 Z"/>
</g>
<g fill="None" fill-opacity="0.0" stroke="#FABE5A" stroke-opacity="1.00" stroke-width="0.3"><path d="
M 91.00 31.00 
C 80.54 27.95 68.03 30.70 57.00 30.00 C 45.97 29.30 33.50 29.04 24.00 33.00
C 19.93 37.80 13.86 38.08 9.92 44.92 C 5.99 51.77 6.39 57.55 6.00 66.00 C 5.61 74.45 7.14 83.00 6.00 92.00 C 4.86 101.00 11.22 104.85 21.00 102.00 C 30.78 99.15 36.87 104.38 35.00 113.00 C 33.13 121.62 36.92 131.52 34.25 138.25 C 31.59 144.99 22.31 148.40 19.00 142.00 C 15.69 135.60 24.03 124.00 17.25 117.75 C 10.46 111.51 4.52 121.23 7.00 129.00 C 9.48 136.77 4.95 146.54 7.03 153.97 C 9.10 161.41 18.71 156.09 25.00 156.00 C 31.29 155.91 36.01 153.64 41.08 149.08 C 46.15 144.52 46.67 135.99 47.00 129.00 C 47.33 122.01 46.49 112.11 48.01 105.01 C 49.53 97.91 62.23 101.54 69.00 101.00 C 75.77 100.46 87.35 101.55 93.98 99.98 C 100.60 98.40 106.07 94.87 110.92 91.92 C 115.77 88.97 124.86 86.55 120.00 80.00
C 128.68 78.51 132.07 66.33 133.00 58.00 C 133.93 49.67 132.42 35.58 127.25 28.75 C 122.08 21.93 117.58 16.55 110.68 11.32 C 103.78 6.09 92.23 4.28 83.00 4.00 C 73.77 3.72 57.57 4.39 49.00 4.00 C 40.43 3.61 19.25 1.51 22.01 11.99 C 24.77 22.47 43.93 14.04 53.00 16.00 C 62.07 17.96 77.31 15.60 87.00 16.00 C 96.69 16.40 104.65 20.16 110.75 27.25 C 116.84 34.35 120.88 41.56 121.00 51.00 C 121.12 60.44 118.78 70.22 111.25 76.25 C 103.71 82.28 99.77 89.01 89.00 89.00 C 78.23 88.99 67.84 89.29 56.00 90.00 C 44.16 90.70 46.65 70.60 59.00 74.00 C 71.35 77.40 80.74 72.85 90.98 71.98 C 101.21 71.10 105.22 59.03 104.78 51.22 C 104.34 43.41 98.28 34.21 91.00 31.00
M 90.00 45.00 
C 91.20 49.38 94.59 59.05 86.32 60.32 C 78.05 61.59 70.41 60.85 62.00 61.00 C 53.59 61.15 45.39 60.89 37.00 61.00
C 32.63 67.80 39.43 78.45 37.00 85.00 C 34.57 91.55 17.30 89.50 20.00 81.00 C 22.70 72.50 17.65 62.56 20.78 54.78 C 23.90 47.00 28.51 44.04 37.00 44.00 C 45.49 43.97 55.38 43.87 64.00 44.00 C 72.62 44.13 81.78 43.17 90.00 45.00 Z"/>
</g>
<g fill="None" fill-opacity="0.0" stroke="#FEFCDE" stroke-opacity="1.00" stroke-width="0.3"><path d="
M 4.00 64.00 
C 4.00 49.90 9.08 36.19 23.08 31.08 C 37.07 25.96 58.84 30.70 73.00 29.00 C 87.16 27.30 105.19 31.18 108.00 46.00
C 106.22 30.05 87.89 25.64 73.00 27.00 C 58.11 28.36 35.67 23.44 21.25 29.25 C 6.83 35.05 2.72 50.78 4.00 64.00 Z"/>
</g>
<g fill="None" fill-opacity="0.0" stroke="#FCEAB8" stroke-opacity="1.00" stroke-width="0.3"><path d="
M 4.00 64.00 
C 4.00 69.33 4.00 74.67 4.00 80.00
C 4.00 86.36 3.69 93.75 4.00 100.00 C 4.31 106.25 14.59 104.57 20.00 104.00 C 25.41 103.43 34.40 104.22 33.00 111.00 C 31.60 117.78 34.02 126.28 33.00 131.00 C 31.98 135.72 28.86 142.32 25.00 143.00
C 33.29 142.81 34.12 130.51 34.00 124.00 C 33.88 117.49 36.46 102.10 27.00 103.00 C 17.54 103.90 5.70 105.93 5.00 97.00 C 4.30 88.07 5.52 77.67 5.00 69.00 C 4.48 60.33 5.13 51.77 8.75 44.75 C 12.36 37.72 17.60 35.67 24.00 33.00
C 33.50 29.04 45.97 29.30 57.00 30.00 C 68.03 30.70 80.54 27.95 91.00 31.00
C 101.50 34.06 107.73 45.35 107.00 56.00
C 107.50 53.19 108.40 49.56 108.00 46.00
C 105.19 31.18 87.16 27.30 73.00 29.00 C 58.84 30.70 37.07 25.96 23.08 31.08 C 9.08 36.19 4.00 49.90 4.00 64.00 Z"/>
</g>
<g fill="None" fill-opacity="0.0" stroke="#ECCE91" stroke-opacity="1.00" stroke-width="0.3"><path d="
M 90.00 45.00 
C 81.78 43.17 72.62 44.13 64.00 44.00 C 55.38 43.87 45.49 43.97 37.00 44.00 C 28.51 44.04 23.90 47.00 20.78 54.78 C 17.65 62.56 22.70 72.50 20.00 81.00 C 17.30 89.50 34.57 91.55 37.00 85.00 C 39.43 78.45 32.63 67.80 37.00 61.00
C 45.39 60.89 53.59 61.15 62.00 61.00 C 70.41 60.85 78.05 61.59 86.32 60.32 C 94.59 59.05 91.20 49.38 90.00 45.00
M 86.00 46.00 
C 95.31 48.83 89.99 63.18 79.00 60.00 C 68.01 56.82 59.34 62.65 47.00 60.00 C 34.66 57.35 31.70 66.13 34.00 79.00 C 36.30 91.87 17.70 87.54 21.00 77.00 C 24.30 66.46 17.17 56.40 25.75 49.75 C 34.34 43.11 43.98 45.41 54.00 46.00 C 64.02 46.59 76.55 43.13 86.00 46.00 Z"/>
</g>
<g fill="None" fill-opacity="0.0" stroke="#FEF5CE" stroke-opacity="1.00" stroke-width="0.3"><path d="
M 86.00 46.00 
C 76.55 43.13 64.02 46.59 54.00 46.00 C 43.98 45.41 34.34 43.11 25.75 49.75 C 17.17 56.40 24.30 66.46 21.00 77.00 C 17.70 87.54 36.30 91.87 34.00 79.00 C 31.70 66.13 34.66 57.35 47.00 60.00 C 59.34 62.65 68.01 56.82 79.00 60.00 C 89.99 63.18 95.31 48.83 86.00 46.00
M 86.00 47.00 
C 94.14 51.21 84.06 60.07 78.00 58.00 C 71.94 55.93 60.95 57.84 55.00 58.00 C 49.05 58.16 36.85 54.66 33.25 60.25 C 29.65 65.84 35.64 75.03 32.02 82.02 C 28.41 89.02 20.51 85.50 22.00 77.00 C 23.49 68.50 20.59 61.98 23.93 54.93 C 27.26 47.87 31.50 46.14 39.00 47.00 C 46.50 47.86 54.90 45.41 62.00 47.00 C 69.10 48.59 79.73 43.76 86.00 47.00 Z"/>
</g>
<g fill="None" fill-opacity="0.0" stroke="#FCFDF8" stroke-opacity="1.00" stroke-width="0.3"><path d="
M 86.00 47.00 
C 79.73 43.76 69.10 48.59 62.00 47.00 C 54.90 45.41 46.50 47.86 39.00 47.00 C 31.50 46.14 27.26 47.87 23.93 54.93 C 20.59 61.98 23.49 68.50 22.00 77.00 C 20.51 85.50 28.41 89.02 32.02 82.02 C 35.64 75.03 29.65 65.84 33.25 60.25 C 36.85 54.66 49.05 58.16 55.00 58.00 C 60.95 57.84 71.94 55.93 78.00 58.00 C 84.06 60.07 94.14 51.21 86.00 47.00 Z"/>
</g>
<g fill="None" fill-opacity="0.0" stroke="#FEF8DA" stroke-opacity="1.00" stroke-width="0.3"><path d="
M 24.00 160.00 
C 19.80 158.55 5.51 163.23 5.00 157.00 C 4.49 150.77 4.39 140.83 5.00 135.00 C 5.61 129.17 2.23 118.07 6.33 114.33 C 10.43 110.59 23.13 114.01 21.00 121.00 C 18.87 127.99 22.59 135.92 21.00 143.00
C 22.33 142.98 23.67 143.03 25.00 143.00
C 28.86 142.32 31.98 135.72 33.00 131.00 C 34.02 126.28 31.60 117.78 33.00 111.00 C 34.40 104.22 25.41 103.43 20.00 104.00 C 14.59 104.57 4.31 106.25 4.00 100.00 C 3.69 93.75 4.00 86.36 4.00 80.00
C 4.60 85.28 -0.80 98.87 4.25 103.75 C 9.31 108.62 19.45 103.79 27.00 105.00 C 34.54 106.21 31.66 117.83 32.00 124.00 C 32.34 130.17 29.70 139.13 23.00 140.00
C 19.75 130.31 28.84 116.15 16.00 113.00 C 3.16 109.85 -0.27 120.08 3.00 131.00 C 6.27 141.92 -0.67 151.32 4.00 161.00
C 9.80 159.41 19.19 163.56 24.00 160.00 Z"/>
</g>
<g fill="None" fill-opacity="0.0" stroke="#E9DDCA" stroke-opacity="1.00" stroke-width="0.3"><path d="
M 578.00 141.00 
L 578.00 135.00
C 566.84 170.71 511.94 166.86 510.07 127.93 C 508.20 89.00 562.45 76.78 578.00 111.00
L 578.00 107.00
C 574.38 107.04 576.61 102.22 576.00 100.00
C 564.06 90.20 544.05 84.68 528.25 91.25 C 512.45 97.81 506.87 117.80 508.01 133.99 C 509.15 150.18 525.57 162.76 540.78 163.78 C 555.99 164.80 571.47 154.78 578.00 141.00 Z"/>
</g>
<g fill="None" fill-opacity="0.0" stroke="#EFE3CE" stroke-opacity="1.00" stroke-width="0.3"><path d="
M 293.00 117.00 
C 293.13 114.81 294.03 113.24 294.00 111.00
C 292.45 109.05 289.10 111.20 288.00 109.00
C 285.33 108.90 275.00 109.90 273.77 107.23 C 272.54 104.56 272.97 95.05 275.00 93.00
C 279.36 88.59 290.37 93.28 297.00 92.00 C 303.63 90.72 312.41 92.47 320.00 92.00 C 327.59 91.53 335.64 89.54 336.00 99.00
C 337.03 85.62 325.44 91.98 315.00 90.00 C 304.56 88.02 294.78 93.52 284.00 90.00 C 273.22 86.47 268.48 97.71 272.08 106.92 C 275.69 116.12 288.86 107.95 293.00 117.00 Z"/>
</g>
<g fill="None" fill-opacity="0.0" stroke="#F8ECD8" stroke-opacity="1.00" stroke-width="0.3"><path d="
M 352.00 107.00 
C 356.62 94.79 369.28 91.89 380.00 91.00 C 390.72 90.11 408.76 100.14 402.00 112.00
C 401.78 112.38 402.00 113.00 402.00 113.00
C 408.89 112.94 402.05 100.39 399.19 97.25 C 396.33 94.12 391.29 88.27 384.00 89.00 C 376.71 89.73 368.90 89.66 362.03 92.03 C 355.16 94.39 352.90 100.58 352.00 107.00 Z"/>
</g>
<g fill="None" fill-opacity="0.0" stroke="#EEE3CE" stroke-opacity="1.00" stroke-width="0.3"><path d="
M 429.00 160.00 
C 422.49 157.83 425.23 146.98 425.00 141.00 C 424.77 135.02 424.68 123.19 425.00 117.00 C 425.32 110.81 423.83 99.26 425.00 94.00 C 426.17 88.74 443.88 91.73 445.00 94.00
C 447.44 98.93 440.69 114.02 447.25 116.75 C 453.81 119.48 465.39 118.11 467.00 112.00
C 468.58 100.44 466.66 88.84 481.00 92.00 C 495.34 95.16 486.86 109.27 488.00 120.00 C 489.14 130.73 489.45 144.35 488.00 155.00
C 490.89 135.05 487.15 112.37 490.00 92.00
C 483.34 88.23 474.63 88.12 467.75 91.75 C 460.86 95.37 468.74 106.23 465.00 113.00
C 459.45 113.82 447.85 116.53 447.00 110.00 C 446.15 103.47 449.23 91.21 442.01 90.01 C 434.78 88.80 428.42 89.43 423.00 94.00
C 426.05 103.31 422.29 119.92 424.00 129.00 C 425.71 138.08 418.95 157.77 429.00 160.00 Z"/>
</g>
<g fill="None" fill-opacity="0.0" stroke="#EAD8BA" stroke-opacity="1.00" stroke-width="0.3"><path d="
M 215.00 155.00 
C 215.32 147.12 211.04 140.28 216.00 134.00
C 219.75 135.35 223.37 140.03 224.00 144.00
C 230.63 153.60 232.05 160.43 246.00 160.00 C 259.95 159.57 257.14 144.90 257.00 133.00 C 256.86 121.10 256.81 108.58 256.93 97.07 C 257.04 85.57 237.20 89.71 232.00 95.00
C 236.88 100.79 233.51 122.97 227.92 112.08 C 222.33 101.20 219.91 101.44 214.00 92.00
C 207.08 89.73 198.84 88.83 192.00 92.00
C 192.00 114.00 192.00 136.00 192.00 158.00
C 198.88 159.52 213.27 164.28 215.00 155.00
M 213.00 128.00 
C 214.67 136.38 210.30 139.24 212.00 148.00 C 213.70 156.76 208.37 159.18 200.00 158.00 C 191.63 156.82 195.82 148.99 195.00 142.00 C 194.18 135.01 195.79 127.12 195.00 120.00 C 194.21 112.88 196.33 106.22 195.00 99.00 C 193.67 91.78 205.36 90.81 210.67 93.33 C 215.98 95.85 215.45 100.49 220.25 104.75 C 225.05 109.02 224.88 110.97 229.75 117.25 C 234.63 123.52 236.19 118.79 236.00 112.00 C 235.81 105.21 234.64 96.28 239.08 93.08 C 243.53 89.89 254.99 92.64 254.00 99.00 C 253.01 105.36 254.66 114.36 254.00 121.00 C 253.34 127.64 254.74 135.43 254.00 142.00 C 253.26 148.57 257.49 158.68 248.00 158.00 C 238.51 157.32 239.64 159.50 232.75 152.25 C 225.85 145.01 221.66 132.26 213.00 128.00 Z"/>
</g>
<g fill="None" fill-opacity="0.0" stroke="#EAD3AE" stroke-opacity="1.00" stroke-width="0.3"><path d="
M 105.00 144.00 
C 108.59 151.51 117.15 159.20 126.00 160.00
C 132.10 160.55 138.88 160.33 145.00 160.00
C 157.81 159.30 169.64 147.20 172.00 135.00
C 177.23 107.89 157.52 88.74 132.00 91.00 C 106.49 93.26 94.99 123.07 105.00 144.00
M 144.00 92.00 
C 168.85 95.55 178.90 129.19 164.03 147.03 C 149.15 164.86 114.69 165.11 105.23 140.77 C 95.77 116.43 116.57 88.08 144.00 92.00 Z"/>
</g>
<g fill="None" fill-opacity="0.0" stroke="#E7CDA2" stroke-opacity="1.00" stroke-width="0.3"><path d="
M 352.00 107.00 
C 351.07 113.67 350.18 119.04 354.00 125.00
C 357.19 127.78 363.48 129.43 366.67 132.33 C 369.86 135.23 378.90 134.14 380.75 138.25 C 382.61 142.36 372.24 146.24 368.77 140.23 C 365.30 134.22 363.16 136.30 355.00 136.00 C 346.83 135.70 349.43 142.63 349.00 149.00
C 349.00 149.00 348.90 149.52 349.00 150.00
C 361.50 160.93 375.93 161.73 391.08 157.08 C 406.22 152.42 410.00 132.71 398.00 122.00
C 396.11 121.10 394.95 120.65 393.00 120.00
C 386.54 117.85 377.60 116.24 374.00 110.00
C 375.55 108.94 378.89 108.09 380.00 110.00
C 380.50 110.02 381.00 110.00 381.00 110.00
C 384.32 110.65 386.13 114.62 390.01 113.99 C 393.89 113.37 397.77 111.17 402.00 112.00
C 408.76 100.14 390.72 90.11 380.00 91.00 C 369.28 91.89 356.62 94.79 352.00 107.00
M 401.00 111.00 
C 389.52 116.57 388.59 106.32 378.00 107.00 C 367.41 107.68 375.10 118.43 383.07 118.93 C 391.05 119.42 397.06 123.78 400.97 130.03 C 404.88 136.27 403.92 145.79 396.75 150.75 C 389.58 155.71 384.14 158.77 374.00 158.00 C 363.86 157.23 362.55 156.77 353.75 149.25 C 344.96 141.73 357.37 134.33 363.67 138.33 C 369.97 142.33 379.97 149.52 383.92 140.92 C 387.87 132.31 371.38 133.78 366.32 130.68 C 361.26 127.57 352.94 122.34 354.00 114.00 C 355.06 105.66 356.83 99.22 365.01 96.01 C 373.18 92.80 381.35 91.95 389.25 94.75 C 397.14 97.56 403.17 102.02 401.00 111.00 Z"/>
</g>
<g fill="None" fill-opacity="0.0" stroke="#EDCD98" stroke-opacity="1.00" stroke-width="0.3"><path d="
M 578.00 135.00 
L 578.00 127.00
C 575.21 144.30 563.25 156.80 545.00 158.00 C 526.75 159.20 511.12 146.20 511.22 127.78 C 511.32 109.36 521.97 96.09 540.00 93.00 C 558.04 89.91 575.95 102.33 578.00 120.00
L 578.00 111.00
C 562.45 76.78 508.20 89.00 510.07 127.93 C 511.94 166.86 566.84 170.71 578.00 135.00 Z"/>
</g>
<g fill="None" fill-opacity="0.0" stroke="#F7BE60" stroke-opacity="1.00" stroke-width="0.3"><path d="
M 144.00 92.00 
C 116.57 88.08 95.77 116.43 105.23 140.77 C 114.69 165.11 149.15 164.86 164.03 147.03 C 178.90 129.19 168.85 95.55 144.00 92.00
M 143.00 108.00 
C 161.86 112.67 151.12 151.82 131.98 143.02 C 112.83 134.23 122.65 102.96 143.00 108.00 Z"/>
</g>
<g fill="None" fill-opacity="0.0" stroke="#E9D2AE" stroke-opacity="1.00" stroke-width="0.3"><path d="
M 275.00 93.00 
C 279.64 89.72 291.22 94.50 297.00 93.00 C 302.78 91.50 313.12 93.73 319.00 93.00 C 324.88 92.27 336.57 91.25 334.67 98.67 C 332.77 106.10 331.95 110.05 322.78 108.78 C 313.61 107.51 312.11 112.72 313.00 121.00 C 313.89 129.28 312.72 134.87 313.00 143.00 C 313.28 151.13 315.46 157.59 306.00 158.00 C 296.54 158.41 294.25 156.05 295.00 147.00 C 295.75 137.95 294.86 133.46 295.00 125.00 C 295.14 116.54 297.72 109.37 288.00 109.00
C 289.10 111.20 292.45 109.05 294.00 111.00
C 294.03 113.24 293.13 114.81 293.00 117.00
C 291.48 129.02 295.03 136.54 293.00 149.00 C 290.97 161.46 302.27 161.36 313.00 160.00
C 316.75 145.59 314.63 129.26 315.00 114.00
C 315.01 113.51 313.01 111.22 314.00 110.00
C 315.83 109.77 317.47 110.07 319.00 111.00
C 329.81 110.39 336.51 112.43 336.00 99.00
C 335.64 89.54 327.59 91.53 320.00 92.00 C 312.41 92.47 303.63 90.72 297.00 92.00 C 290.37 93.28 279.36 88.59 275.00 93.00 Z"/>
</g>
<g fill="None" fill-opacity="0.0" stroke="#E7CFA6" stroke-opacity="1.00" stroke-width="0.3"><path d="
M 429.00 160.00 
C 443.15 163.13 446.66 158.09 446.00 146.00
C 445.62 139.09 446.22 134.16 454.00 135.00 C 461.79 135.84 465.33 133.21 466.00 142.00
C 467.24 146.96 462.20 157.86 469.00 160.00 C 475.80 162.14 481.77 160.92 488.00 159.00
C 488.25 157.73 487.67 156.25 488.00 155.00
C 489.45 144.35 489.14 130.73 488.00 120.00 C 486.86 109.27 495.34 95.16 481.00 92.00 C 466.66 88.84 468.58 100.44 467.00 112.00
C 468.51 106.27 467.49 99.07 469.00 93.00
C 476.58 92.86 486.47 90.80 486.00 100.00 C 485.52 109.20 485.50 115.18 486.00 124.00 C 486.50 132.82 484.19 139.02 486.00 148.00 C 487.81 156.98 478.99 160.97 471.00 158.00 C 463.01 155.03 470.73 142.50 468.00 137.00 C 465.27 131.50 454.53 131.37 448.00 133.00 C 441.47 134.63 444.29 146.37 444.00 153.00 C 443.71 159.63 433.51 157.06 428.00 158.00
C 425.27 148.75 428.24 140.92 427.00 131.00 C 425.76 121.08 429.01 113.69 427.00 103.00 C 424.99 92.31 435.72 90.45 445.00 94.00
C 443.88 91.73 426.17 88.74 425.00 94.00 C 423.83 99.26 425.32 110.81 425.00 117.00 C 424.68 123.19 424.77 135.02 425.00 141.00 C 425.23 146.98 422.49 157.83 429.00 160.00 Z"/>
</g>
<g fill="None" fill-opacity="0.0" stroke="#EBC178" stroke-opacity="1.00" stroke-width="0.3"><path d="
M 213.00 128.00 
C 221.66 132.26 225.85 145.01 232.75 152.25 C 239.64 159.50 238.51 157.32 248.00 158.00 C 257.49 158.68 253.26 148.57 254.00 142.00 C 254.74 135.43 253.34 127.64 254.00 121.00 C 254.66 114.36 253.01 105.36 254.00 99.00 C 254.99 92.64 243.53 89.89 239.08 93.08 C 234.64 96.28 235.81 105.21 236.00 112.00 C 236.19 118.79 234.63 123.52 229.75 117.25 C 224.88 110.97 225.05 109.02 220.25 104.75 C 215.45 100.49 215.98 95.85 210.67 93.33 C 205.36 90.81 193.67 91.78 195.00 99.00 C 196.33 106.22 194.21 112.88 195.00 120.00 C 195.79 127.12 194.18 135.01 195.00 142.00 C 195.82 148.99 191.63 156.82 200.00 158.00 C 208.37 159.18 213.70 156.76 212.00 148.00 C 210.30 139.24 214.67 136.38 213.00 128.00
M 253.00 155.00 
C 229.81 161.83 228.95 127.23 211.00 122.00
C 206.71 133.08 218.21 162.38 197.00 155.00
C 198.42 145.28 195.71 131.18 197.00 121.00 C 198.29 110.82 192.30 94.94 205.00 95.00 C 217.70 95.06 213.15 109.42 224.00 112.00
C 223.73 119.96 233.14 123.41 235.00 130.00
C 246.85 125.74 231.53 99.35 243.01 94.01 C 254.50 88.67 251.67 103.19 252.00 109.00 C 252.33 114.81 251.64 125.29 252.00 132.00 C 252.36 138.71 250.93 148.51 253.00 155.00 Z"/>
</g>
<g fill="None" fill-opacity="0.0" stroke="#EBC378" stroke-opacity="1.00" stroke-width="0.3"><path d="
M 288.00 109.00 
C 297.72 109.37 295.14 116.54 295.00 125.00 C 294.86 133.46 295.75 137.95 295.00 147.00 C 294.25 156.05 296.54 158.41 306.00 158.00 C 315.46 157.59 313.28 151.13 313.00 143.00 C 312.72 134.87 313.89 129.28 313.00 121.00 C 312.11 112.72 313.61 107.51 322.78 108.78 C 331.95 110.05 332.77 106.10 334.67 98.67 C 336.57 91.25 324.88 92.27 319.00 93.00 C 313.12 93.73 302.78 91.50 297.00 93.00 C 291.22 94.50 279.64 89.72 275.00 93.00
C 272.97 95.05 272.54 104.56 273.77 107.23 C 275.00 109.90 285.33 108.90 288.00 109.00
M 330.00 106.00 
C 323.36 107.07 313.72 102.99 310.00 110.00
C 312.31 124.17 310.35 139.42 311.00 154.00
C 303.43 158.25 296.95 155.96 297.60 148.26 C 298.24 140.56 296.62 131.20 297.00 124.00 C 297.38 116.80 300.23 106.93 291.97 106.03 C 283.72 105.12 275.31 108.39 276.00 97.00
C 284.30 91.29 298.74 94.74 309.00 94.00 C 319.26 93.26 337.60 91.14 330.00 106.00 Z"/>
</g>
<g fill="None" fill-opacity="0.0" stroke="#F8BE5E" stroke-opacity="1.00" stroke-width="0.3"><path d="
M 401.00 111.00 
C 403.17 102.02 397.14 97.56 389.25 94.75 C 381.35 91.95 373.18 92.80 365.01 96.01 C 356.83 99.22 355.06 105.66 354.00 114.00 C 352.94 122.34 361.26 127.57 366.32 130.68 C 371.38 133.78 387.87 132.31 383.92 140.92 C 379.97 149.52 369.97 142.33 363.67 138.33 C 357.37 134.33 344.96 141.73 353.75 149.25 C 362.55 156.77 363.86 157.23 374.00 158.00 C 384.14 158.77 389.58 155.71 396.75 150.75 C 403.92 145.79 404.88 136.27 400.97 130.03 C 397.06 123.78 391.05 119.42 383.07 118.93 C 375.10 118.43 367.41 107.68 378.00 107.00 C 388.59 106.32 389.52 116.57 401.00 111.00 Z"/>
</g>
<g fill="None" fill-opacity="0.0" stroke="#F8BE60" stroke-opacity="1.00" stroke-width="0.3"><path d="
M 467.00 112.00 
C 465.39 118.11 453.81 119.48 447.25 116.75 C 440.69 114.02 447.44 98.93 445.00 94.00
C 435.72 90.45 424.99 92.31 427.00 103.00 C 429.01 113.69 425.76 121.08 427.00 131.00 C 428.24 140.92 425.27 148.75 428.00 158.00
C 433.51 157.06 443.71 159.63 444.00 153.00 C 444.29 146.37 441.47 134.63 448.00 133.00 C 454.53 131.37 465.27 131.50 468.00 137.00 C 470.73 142.50 463.01 155.03 471.00 158.00 C 478.99 160.97 487.81 156.98 486.00 148.00 C 484.19 139.02 486.50 132.82 486.00 124.00 C 485.50 115.18 485.52 109.20 486.00 100.00 C 486.47 90.80 476.58 92.86 469.00 93.00
C 467.49 99.07 468.51 106.27 467.00 112.00 Z"/>
</g>
<g fill="None" fill-opacity="0.0" stroke="#F8BE5E" stroke-opacity="1.00" stroke-width="0.3"><path d="
M 578.00 127.00 
L 578.00 120.00
C 575.95 102.33 558.04 89.91 540.00 93.00 C 521.97 96.09 511.32 109.36 511.22 127.78 C 511.12 146.20 526.75 159.20 545.00 158.00 C 563.25 156.80 575.21 144.30 578.00 127.00
M 548.00 107.00 
C 566.90 110.16 560.80 148.28 540.93 143.07 C 521.05 137.86 527.17 103.52 548.00 107.00 Z"/>
</g>
<g fill="None" fill-opacity="0.0" stroke="#FBBE57" stroke-opacity="1.00" stroke-width="0.3"><path d="
M 253.00 155.00 
C 250.93 148.51 252.36 138.71 252.00 132.00 C 251.64 125.29 252.33 114.81 252.00 109.00 C 251.67 103.19 254.50 88.67 243.01 94.01 C 231.53 99.35 246.85 125.74 235.00 130.00
C 233.14 123.41 223.73 119.96 224.00 112.00
C 213.15 109.42 217.70 95.06 205.00 95.00 C 192.30 94.94 198.29 110.82 197.00 121.00 C 195.71 131.18 198.42 145.28 197.00 155.00
C 218.21 162.38 206.71 133.08 211.00 122.00
C 228.95 127.23 229.81 161.83 253.00 155.00 Z"/>
</g>
<g fill="None" fill-opacity="0.0" stroke="#FBBD57" stroke-opacity="1.00" stroke-width="0.3"><path d="
M 330.00 106.00 
C 337.60 91.14 319.26 93.26 309.00 94.00 C 298.74 94.74 284.30 91.29 276.00 97.00
C 275.31 108.39 283.72 105.12 291.97 106.03 C 300.23 106.93 297.38 116.80 297.00 124.00 C 296.62 131.20 298.24 140.56 297.60 148.26 C 296.95 155.96 303.43 158.25 311.00 154.00
C 310.35 139.42 312.31 124.17 310.00 110.00
C 313.72 102.99 323.36 107.07 330.00 106.00 Z"/>
</g>
<g fill="None" fill-opacity="0.0" stroke="#E2CDAC" stroke-opacity="1.00" stroke-width="0.3"><path d="
M 548.00 107.00 
C 527.17 103.52 521.05 137.86 540.93 143.07 C 560.80 148.28 566.90 110.16 548.00 107.00
M 548.00 110.00 
C 563.83 114.22 558.13 144.76 541.00 141.00 C 523.87 137.24 532.67 105.92 548.00 110.00 Z"/>
</g>
<g fill="None" fill-opacity="0.0" stroke="#E8CB9A" stroke-opacity="1.00" stroke-width="0.3"><path d="
M 143.00 108.00 
C 122.65 102.96 112.83 134.23 131.98 143.02 C 151.12 151.82 161.86 112.67 143.00 108.00
M 141.00 109.00 
C 159.00 113.19 151.34 146.68 133.33 141.67 C 115.32 136.66 122.99 104.81 141.00 109.00 Z"/>
</g>
<g fill="None" fill-opacity="0.0" stroke="#E3D6C0" stroke-opacity="1.00" stroke-width="0.3"><path d="
M 141.00 109.00 
C 122.99 104.81 115.32 136.66 133.33 141.67 C 151.34 146.68 159.00 113.19 141.00 109.00
M 140.00 110.00 
C 157.12 113.17 149.96 142.03 134.00 139.00 C 118.04 135.97 125.12 107.25 140.00 110.00 Z"/>
</g>
<g fill="None" fill-opacity="0.0" stroke="#D2D0C4" stroke-opacity="1.00" stroke-width="0.3"><path d="
M 393.00 120.00 
C 387.71 114.06 401.43 114.03 402.00 113.00
C 402.00 113.00 401.78 112.38 402.00 112.00
C 397.77 111.17 393.89 113.37 390.01 113.99 C 386.13 114.62 384.32 110.65 381.00 110.00
C 380.28 112.27 377.96 112.06 376.00 112.00
C 375.37 109.47 378.53 110.10 380.00 110.00
C 378.89 108.09 375.55 108.94 374.00 110.00
C 377.60 116.24 386.54 117.85 393.00 120.00 Z"/>
</g>
<g fill="None" fill-opacity="0.0" stroke="#E5E7E6" stroke-opacity="1.00" stroke-width="0.3"><path d="
M 140.00 110.00 
C 125.12 107.25 118.04 135.97 134.00 139.00 C 149.96 142.03 157.12 113.17 140.00 110.00 Z"/>
</g>
<g fill="None" fill-opacity="0.0" stroke="#D0BFB8" stroke-opacity="1.00" stroke-width="0.3"><path d="
M 315.00 114.00 
C 317.40 114.77 317.63 111.69 319.00 111.00
C 317.47 110.07 315.83 109.77 314.00 110.00
C 313.01 111.22 315.01 113.51 315.00 114.00 Z"/>
</g>
<g fill="None" fill-opacity="0.0" stroke="#C0C3CF" stroke-opacity="1.00" stroke-width="0.3"><path d="
M 381.00 110.00 
C 381.00 110.00 380.50 110.02 380.00 110.00
C 378.53 110.10 375.37 109.47 376.00 112.00
C 377.96 112.06 380.28 112.27 381.00 110.00 Z"/>
</g>
<g fill="None" fill-opacity="0.0" stroke="#E7E7E5" stroke-opacity="1.00" stroke-width="0.3"><path d="
M 548.00 110.00 
C 532.67 105.92 523.87 137.24 541.00 141.00 C 558.13 144.76 563.83 114.22 548.00 110.00 Z"/>
</g>
<g fill="None" fill-opacity="0.0" stroke="#DFDAD2" stroke-opacity="1.00" stroke-width="0.3"><path d="
M 349.00 150.00 
C 354.68 164.42 377.32 169.58 391.75 162.75 C 406.18 155.92 409.71 135.08 402.00 122.00
C 400.85 121.60 399.09 122.52 398.00 122.00
C 410.00 132.71 406.22 152.42 391.08 157.08 C 375.93 161.73 361.50 160.93 349.00 150.00 Z"/>
</g>
<g fill="None" fill-opacity="0.0" stroke="#D8D2C5" stroke-opacity="1.00" stroke-width="0.3"><path d="
M 349.00 149.00 
C 349.43 142.63 346.83 135.70 355.00 136.00 C 363.16 136.30 365.30 134.22 368.77 140.23 C 372.24 146.24 382.61 142.36 380.75 138.25 C 378.90 134.14 369.86 135.23 366.67 132.33 C 363.48 129.43 357.19 127.78 354.00 125.00
C 355.48 128.08 356.91 128.89 360.00 129.00
C 361.95 135.58 354.08 135.96 350.00 134.00
C 347.68 136.44 344.03 146.74 349.00 149.00 Z"/>
</g>
<g fill="None" fill-opacity="0.0" stroke="#D5D2CE" stroke-opacity="1.00" stroke-width="0.3"><path d="
M 215.00 155.00 
C 214.44 151.77 215.79 149.01 216.00 146.00
C 219.19 148.94 220.54 142.73 224.00 144.00
C 223.37 140.03 219.75 135.35 216.00 134.00
C 211.04 140.28 215.32 147.12 215.00 155.00 Z"/>
</g>
<g fill="None" fill-opacity="0.0" stroke="#CFCDCB" stroke-opacity="1.00" stroke-width="0.3"><path d="
M 446.00 146.00 
C 447.76 145.50 446.72 143.28 447.00 142.00
C 450.86 139.77 463.16 135.99 466.00 142.00
C 465.33 133.21 461.79 135.84 454.00 135.00 C 446.22 134.16 445.62 139.09 446.00 146.00 Z"/>
</g>
<g fill="None" fill-opacity="0.0" stroke="#D8CDC5" stroke-opacity="1.00" stroke-width="0.3"><path d="
M 145.00 160.00 
C 138.88 160.33 132.10 160.55 126.00 160.00
C 133.27 162.36 137.32 161.64 145.00 160.00 Z"/>
</g>
<g fill="None" fill-opacity="0.0" stroke="#EDD09F" stroke-opacity="1.00" stroke-width="0.3"><path d="
M 178.00 200.00 
C 177.53 198.96 176.39 197.65 177.00 196.00
C 179.73 196.39 180.37 193.07 182.00 192.00
C 188.66 186.86 175.46 182.64 175.00 190.00
C 168.04 191.22 168.74 180.76 162.00 186.00
C 161.42 190.69 162.54 196.46 167.00 198.00
C 167.12 202.31 158.32 206.23 162.31 210.69 C 166.29 215.16 171.46 206.24 176.00 208.00
C 175.02 213.16 181.17 212.26 184.00 211.00
C 185.44 206.11 179.20 202.64 178.00 200.00 Z"/>
</g>
<g fill="None" fill-opacity="0.0" stroke="#EFDAB4" stroke-opacity="1.00" stroke-width="0.3"><path d="
M 57.00 192.00 
C 57.93 181.83 38.74 182.80 38.00 191.00 C 37.26 199.20 38.11 200.38 38.08 207.92 C 38.04 215.46 44.59 210.35 48.00 212.00 C 51.41 213.65 60.99 208.02 55.00 206.00 C 49.01 203.98 44.36 204.78 51.97 201.97 C 59.59 199.16 54.47 196.43 49.09 195.92 C 43.70 195.40 53.68 188.50 57.00 192.00
M 54.00 190.00 
C 50.61 191.47 43.86 190.35 46.00 197.00
C 49.03 197.26 52.37 196.26 55.00 198.00
C 53.54 202.07 49.05 201.08 46.00 200.00
C 41.41 208.10 52.02 206.46 56.00 208.00
C 46.83 212.46 39.79 211.29 40.00 200.00 C 40.21 188.71 43.23 184.61 54.00 190.00 Z"/>
</g>
<g fill="None" fill-opacity="0.0" stroke="#ECCF98" stroke-opacity="1.00" stroke-width="0.3"><path d="
M 125.00 185.00 
C 116.39 186.83 112.86 203.29 120.92 209.08 C 128.98 214.87 140.84 211.25 141.00 201.00 C 141.16 190.75 136.46 182.56 125.00 185.00
M 131.00 193.00 
C 136.12 194.48 134.88 206.83 128.33 204.67 C 121.77 202.50 125.67 191.46 131.00 193.00 Z"/>
</g>
<g fill="None" fill-opacity="0.0" stroke="#F3E5C9" stroke-opacity="1.00" stroke-width="0.3"><path d="
M 286.00 200.00 
C 285.86 200.06 284.22 201.80 284.00 202.00
C 276.67 209.90 272.84 191.36 283.00 192.00
C 289.43 204.73 295.52 188.77 285.67 186.33 C 275.82 183.88 270.46 186.38 267.00 195.00 C 263.54 203.62 270.92 213.30 279.00 214.00 C 287.08 214.69 295.98 208.10 291.00 200.00
C 289.54 200.46 287.40 199.39 286.00 200.00
M 290.00 195.00 
C 284.84 196.07 283.76 188.92 278.00 191.00
C 276.90 195.89 272.25 199.94 276.77 205.23 C 281.29 210.52 285.06 202.10 290.00 203.00
C 287.77 216.67 268.15 212.13 269.00 199.00 C 269.85 185.87 286.61 182.33 290.00 195.00 Z"/>
</g>
<g fill="None" fill-opacity="0.0" stroke="#ECD8B1" stroke-opacity="1.00" stroke-width="0.3"><path d="
M 531.00 198.00 
C 540.46 187.72 521.18 180.83 514.75 187.75 C 508.32 194.67 507.78 208.61 517.78 212.22 C 527.78 215.84 542.83 206.86 531.00 198.00
M 526.00 199.00 
C 532.30 198.97 533.63 205.68 530.00 210.00
C 525.08 208.96 519.35 212.17 515.25 207.75 C 511.15 203.33 511.09 195.44 513.21 191.77 C 515.34 188.09 523.96 181.95 529.07 187.93 C 534.18 193.90 528.50 191.78 522.97 190.03 C 517.45 188.27 514.19 198.75 517.75 203.25 C 521.32 207.74 528.25 210.02 526.00 199.00
M 525.00 197.00 
C 524.66 199.76 523.20 202.89 524.00 206.00
C 522.03 205.55 519.06 204.30 519.00 202.00
C 517.13 199.07 516.34 198.90 519.00 196.00
C 519.51 195.45 519.63 194.58 520.00 194.00
C 523.41 188.68 525.34 194.24 525.00 197.00 Z"/>
</g>
<g fill="None" fill-opacity="0.0" stroke="#F2E3D0" stroke-opacity="1.00" stroke-width="0.3"><path d="
M 85.00 206.00 
C 81.35 216.82 78.99 205.05 79.00 196.00 C 79.01 186.95 86.20 184.53 96.00 188.00
C 99.27 195.39 94.84 203.04 87.00 203.00
C 90.30 202.01 93.65 207.30 96.75 201.75 C 99.86 196.20 98.94 197.30 97.97 191.03 C 97.00 184.76 80.40 182.84 77.98 188.98 C 75.55 195.11 75.55 207.77 80.33 212.67 C 85.10 217.57 84.99 206.05 85.00 206.00 Z"/>
</g>
<g fill="None" fill-opacity="0.0" stroke="#EBCA8E" stroke-opacity="1.00" stroke-width="0.3"><path d="
M 327.00 186.00 
C 311.05 182.29 305.09 207.51 321.00 212.00 C 336.91 216.49 342.52 189.61 327.00 186.00
M 326.00 192.00 
C 332.23 194.76 328.58 209.09 321.33 205.67 C 314.08 202.25 318.47 188.67 326.00 192.00 Z"/>
</g>
<g fill="None" fill-opacity="0.0" stroke="#EEDAB8" stroke-opacity="1.00" stroke-width="0.3"><path d="
M 370.00 186.00 
C 361.66 182.73 360.49 194.42 358.32 198.32 C 356.15 202.23 353.13 215.01 359.97 212.97 C 366.81 210.93 364.81 202.13 371.25 210.75 C 377.69 219.37 380.67 205.15 376.93 202.07 C 373.18 199.00 375.04 187.97 370.00 186.00
M 376.00 208.00 
C 372.10 209.18 370.68 205.52 369.00 203.00
C 363.95 202.80 362.72 208.58 358.00 208.00
C 359.11 202.97 360.41 188.23 367.01 188.01 C 373.61 187.79 373.56 203.42 376.00 208.00 Z"/>
</g>
<g fill="None" fill-opacity="0.0" stroke="#EBD9B1" stroke-opacity="1.00" stroke-width="0.3"><path d="
M 419.00 192.00 
C 419.93 182.71 395.14 182.54 397.00 192.00
C 409.77 191.76 398.66 203.99 404.75 210.25 C 410.85 216.50 414.63 200.96 412.00 195.00
C 415.02 194.57 416.03 191.71 419.00 192.00
M 416.00 190.00 
C 406.35 189.73 411.10 201.92 410.00 208.00
C 402.21 208.45 408.02 196.69 405.00 192.00
C 402.84 191.36 399.12 191.41 400.00 188.00
C 404.91 189.17 413.49 185.56 416.00 190.00 Z"/>
</g>
<g fill="None" fill-opacity="0.0" stroke="#F1DBB9" stroke-opacity="1.00" stroke-width="0.3"><path d="
M 481.00 196.00 
C 478.23 193.12 475.84 182.28 469.25 186.25 C 462.66 190.22 469.75 197.32 467.00 204.00 C 464.25 210.68 475.70 216.43 475.00 206.00
C 480.26 203.96 479.60 216.57 485.92 212.92 C 492.25 209.28 492.25 190.89 487.67 186.33 C 483.09 181.77 480.95 194.78 481.00 196.00
M 484.00 188.00 
C 490.44 187.29 492.01 205.45 488.22 210.22 C 484.43 214.99 473.73 200.81 475.00 197.00
C 470.59 200.29 476.05 209.29 469.00 210.00
C 469.94 204.51 467.74 196.21 469.00 191.00 C 470.26 185.79 477.57 188.42 479.30 194.70 C 481.03 200.97 486.66 195.53 484.00 188.00 Z"/>
</g>
<g fill="None" fill-opacity="0.0" stroke="#EAC787" stroke-opacity="1.00" stroke-width="0.3"><path d="
M 85.00 206.00 
C 85.59 204.26 85.38 204.06 87.00 203.00
C 94.84 203.04 99.27 195.39 96.00 188.00
C 86.20 184.53 79.01 186.95 79.00 196.00 C 78.99 205.05 81.35 216.82 85.00 206.00
M 90.00 193.00 
C 90.55 201.07 81.89 192.51 90.00 193.00 Z"/>
</g>
<g fill="None" fill-opacity="0.0" stroke="#E9D6AE" stroke-opacity="1.00" stroke-width="0.3"><path d="
M 212.00 192.00 
C 211.35 184.88 200.10 186.23 204.23 192.77 C 208.36 199.31 208.91 198.95 210.01 206.99 C 211.11 215.04 218.47 210.06 217.22 203.22 C 215.98 196.39 224.99 196.71 223.97 190.03 C 222.95 183.34 214.80 190.54 212.00 192.00
M 213.00 196.00 
C 215.70 193.52 217.16 187.07 222.00 190.00
C 215.81 194.05 218.89 207.37 211.00 208.00
C 213.33 199.83 205.50 195.12 205.00 188.00
C 210.23 187.15 209.65 194.21 213.00 196.00 Z"/>
</g>
<g fill="None" fill-opacity="0.0" stroke="#E8C688" stroke-opacity="1.00" stroke-width="0.3"><path d="
M 290.00 195.00 
C 286.61 182.33 269.85 185.87 269.00 199.00 C 268.15 212.13 287.77 216.67 290.00 203.00
C 285.06 202.10 281.29 210.52 276.77 205.23 C 272.25 199.94 276.90 195.89 278.00 191.00
C 283.76 188.92 284.84 196.07 290.00 195.00 Z"/>
</g>
<g fill="None" fill-opacity="0.0" stroke="#EBC889" stroke-opacity="1.00" stroke-width="0.3"><path d="
M 444.00 187.00 
C 439.24 183.91 437.43 193.82 439.00 197.00 C 440.57 200.18 436.09 207.88 440.33 210.67 C 444.57 213.45 446.43 204.06 445.00 201.00 C 443.57 197.94 447.21 189.08 444.00 187.00 Z"/>
</g>
<g fill="None" fill-opacity="0.0" stroke="#E9C37F" stroke-opacity="1.00" stroke-width="0.3"><path d="
M 526.00 199.00 
C 528.25 210.02 521.32 207.74 517.75 203.25 C 514.19 198.75 517.45 188.27 522.97 190.03 C 528.50 191.78 534.18 193.90 529.07 187.93 C 523.96 181.95 515.34 188.09 513.21 191.77 C 511.09 195.44 511.15 203.33 515.25 207.75 C 519.35 212.17 525.08 208.96 530.00 210.00
C 533.63 205.68 532.30 198.97 526.00 199.00 Z"/>
</g>
<g fill="None" fill-opacity="0.0" stroke="#EAC27D" stroke-opacity="1.00" stroke-width="0.3"><path d="
M 54.00 190.00 
C 43.23 184.61 40.21 188.71 40.00 200.00 C 39.79 211.29 46.83 212.46 56.00 208.00
C 52.02 206.46 41.41 208.10 46.00 200.00
C 49.05 201.08 53.54 202.07 55.00 198.00
C 52.37 196.26 49.03 197.26 46.00 197.00
C 43.86 190.35 50.61 191.47 54.00 190.00 Z"/>
</g>
<g fill="None" fill-opacity="0.0" stroke="#EBC277" stroke-opacity="1.00" stroke-width="0.3"><path d="
M 213.00 196.00 
C 209.65 194.21 210.23 187.15 205.00 188.00
C 205.50 195.12 213.33 199.83 211.00 208.00
C 218.89 207.37 215.81 194.05 222.00 190.00
C 217.16 187.07 215.70 193.52 213.00 196.00 Z"/>
</g>
<g fill="None" fill-opacity="0.0" stroke="#ECC079" stroke-opacity="1.00" stroke-width="0.3"><path d="
M 376.00 208.00 
C 373.56 203.42 373.61 187.79 367.01 188.01 C 360.41 188.23 359.11 202.97 358.00 208.00
C 362.72 208.58 363.95 202.80 369.00 203.00
C 370.68 205.52 372.10 209.18 376.00 208.00 Z"/>
</g>
<g fill="None" fill-opacity="0.0" stroke="#EBBF76" stroke-opacity="1.00" stroke-width="0.3"><path d="
M 416.00 190.00 
C 413.49 185.56 404.91 189.17 400.00 188.00
C 399.12 191.41 402.84 191.36 405.00 192.00
C 408.02 196.69 402.21 208.45 410.00 208.00
C 411.10 201.92 406.35 189.73 416.00 190.00 Z"/>
</g>
<g fill="None" fill-opacity="0.0" stroke="#EBC177" stroke-opacity="1.00" stroke-width="0.3"><path d="
M 484.00 188.00 
C 486.66 195.53 481.03 200.97 479.30 194.70 C 477.57 188.42 470.26 185.79 469.00 191.00 C 467.74 196.21 469.94 204.51 469.00 210.00
C 476.05 209.29 470.59 200.29 475.00 197.00
C 473.73 200.81 484.43 214.99 488.22 210.22 C 492.01 205.45 490.44 187.29 484.00 188.00 Z"/>
</g>
<g fill="None" fill-opacity="0.0" stroke="#EDD6D6" stroke-opacity="1.00" stroke-width="0.3"><path d="
M 178.00 200.00 
C 179.82 197.52 180.85 194.71 182.00 192.00
C 180.37 193.07 179.73 196.39 177.00 196.00
C 176.39 197.65 177.53 198.96 178.00 200.00 Z"/>
</g>
<g fill="None" fill-opacity="0.0" stroke="#F2ECE5" stroke-opacity="1.00" stroke-width="0.3"><path d="
M 326.00 192.00 
C 318.47 188.67 314.08 202.25 321.33 205.67 C 328.58 209.09 332.23 194.76 326.00 192.00 Z"/>
</g>
<g fill="None" fill-opacity="0.0" stroke="#EDDEDE" stroke-opacity="1.00" stroke-width="0.3"><path d="
M 520.00 194.00 
C 521.48 193.44 524.58 195.62 525.00 197.00
C 525.34 194.24 523.41 188.68 520.00 194.00 Z"/>
</g>
<g fill="None" fill-opacity="0.0" stroke="#E8DDDC" stroke-opacity="1.00" stroke-width="0.3"><path d="
M 90.00 193.00 
C 81.89 192.51 90.55 201.07 90.00 193.00 Z"/>
</g>
<g fill="None" fill-opacity="0.0" stroke="#F5F2F1" stroke-opacity="1.00" stroke-width="0.3"><path d="
M 131.00 193.00 
C 125.67 191.46 121.77 202.50 128.33 204.67 C 134.88 206.83 136.12 194.48 131.00 193.00 Z"/>
</g>
<g fill="None" fill-opacity="0.0" stroke="#F0EFDE" stroke-opacity="1.00" stroke-width="0.3"><path d="
M 519.00 196.00 
C 519.01 196.85 518.86 201.50 519.00 202.00
C 519.06 204.30 522.03 205.55 524.00 206.00
C 523.20 202.89 524.66 199.76 525.00 197.00
C 524.58 195.62 521.48 193.44 520.00 194.00
C 519.63 194.58 519.51 195.45 519.00 196.00 Z"/>
</g>
<g fill="None" fill-opacity="0.0" stroke="#EEFBE7" stroke-opacity="1.00" stroke-width="0.3"><path d="
M 284.00 202.00 
C 284.22 201.80 285.86 200.06 286.00 200.00
C 284.67 197.62 283.00 193.73 279.00 195.00
C 277.97 196.41 283.88 201.99 284.00 202.00 Z"/>
</g>
<g fill="None" fill-opacity="0.0" stroke="#EFDDDE" stroke-opacity="1.00" stroke-width="0.3"><path d="
M 519.00 202.00 
C 518.86 201.50 519.01 196.85 519.00 196.00
C 516.34 198.90 517.13 199.07 519.00 202.00 Z"/>
</g>
<g fill="#FBFBFA" fill-opacity="1.00" stroke="None">
<path d="
M 0.00 216.00 
L 578.00 216.00
L 578.00 141.00
C 571.47 154.78 555.99 164.80 540.78 163.78 C 525.57 162.76 509.15 150.18 508.01 133.99 C 506.87 117.80 512.45 97.81 528.25 91.25 C 544.05 84.68 564.06 90.20 576.00 100.00
C 576.61 102.22 574.38 107.04 578.00 107.00
L 578.00 0.00
L 92.00 0.00
C 109.01 2.83 122.64 12.42 131.75 26.25 C 140.86 40.07 138.75 63.87 133.00 79.00
C 127.26 81.40 124.56 87.57 119.00 92.00
C 131.56 88.06 151.87 86.12 162.23 95.77 C 172.59 105.42 177.42 123.10 172.00 135.00
C 169.64 147.20 157.81 159.30 145.00 160.00
C 137.32 161.64 133.27 162.36 126.00 160.00
C 117.15 159.20 108.59 151.51 105.00 144.00
C 101.15 143.68 102.92 148.73 101.00 150.00
C 100.39 147.91 97.33 141.95 102.00 144.00
C 102.01 129.94 95.74 113.42 108.00 103.00
C 100.66 100.96 88.97 104.55 80.00 105.00 C 71.03 105.45 52.79 100.34 52.00 111.00 C 51.21 121.66 53.57 132.56 52.00 143.00
C 44.17 148.91 37.13 161.11 25.00 160.00
C 24.51 159.95 24.00 160.00 24.00 160.00
C 19.19 163.56 9.80 159.41 4.00 161.00
C -0.67 151.32 6.27 141.92 3.00 131.00 C -0.27 120.08 3.16 109.85 16.00 113.00 C 28.84 116.15 19.75 130.31 23.00 140.00
C 29.70 139.13 32.34 130.17 32.00 124.00 C 31.66 117.83 34.54 106.21 27.00 105.00 C 19.45 103.79 9.31 108.62 4.25 103.75 C -0.80 98.87 4.60 85.28 4.00 80.00
C 4.00 74.67 4.00 69.33 4.00 64.00
C 2.72 50.78 6.83 35.05 21.25 29.25 C 35.67 23.44 58.11 28.36 73.00 27.00 C 87.89 25.64 106.22 30.05 108.00 46.00
C 108.40 49.56 107.50 53.19 107.00 56.00
C 106.25 66.96 97.93 73.43 88.00 76.00
C 76.59 78.96 62.27 77.13 52.00 77.00
C 49.28 89.04 65.53 84.09 73.00 85.00 C 80.47 85.91 95.30 85.56 96.00 79.00
C 108.26 80.99 113.50 66.13 115.92 55.92 C 118.35 45.72 111.50 28.22 101.00 29.00
C 93.65 15.94 76.12 21.04 62.00 20.00 C 47.88 18.96 29.37 22.24 16.00 18.00
C 15.91 11.63 18.65 7.88 16.00 2.00
C 17.28 2.27 18.72 1.23 19.00 0.00
L 0.00 0.00
L 0.00 216.00
M 336.00 99.00 
C 336.51 112.43 329.81 110.39 319.00 111.00
C 317.63 111.69 317.40 114.77 315.00 114.00
C 314.63 129.26 316.75 145.59 313.00 160.00
C 302.27 161.36 290.97 161.46 293.00 149.00 C 295.03 136.54 291.48 129.02 293.00 117.00
C 288.86 107.95 275.69 116.12 272.08 106.92 C 268.48 97.71 273.22 86.47 284.00 90.00 C 294.78 93.52 304.56 88.02 315.00 90.00 C 325.44 91.98 337.03 85.62 336.00 99.00
M 402.00 113.00 
C 401.43 114.03 387.71 114.06 393.00 120.00
C 394.95 120.65 396.11 121.10 398.00 122.00
C 399.09 122.52 400.85 121.60 402.00 122.00
C 409.71 135.08 406.18 155.92 391.75 162.75 C 377.32 169.58 354.68 164.42 349.00 150.00
C 348.90 149.52 349.00 149.00 349.00 149.00
C 344.03 146.74 347.68 136.44 350.00 134.00
C 354.08 135.96 361.95 135.58 360.00 129.00
C 356.91 128.89 355.48 128.08 354.00 125.00
C 350.18 119.04 351.07 113.67 352.00 107.00
C 352.90 100.58 355.16 94.39 362.03 92.03 C 368.90 89.66 376.71 89.73 384.00 89.00 C 391.29 88.27 396.33 94.12 399.19 97.25 C 402.05 100.39 408.89 112.94 402.00 113.00
M 488.00 155.00 
C 487.67 156.25 488.25 157.73 488.00 159.00
C 481.77 160.92 475.80 162.14 469.00 160.00 C 462.20 157.86 467.24 146.96 466.00 142.00
C 463.16 135.99 450.86 139.77 447.00 142.00
C 446.72 143.28 447.76 145.50 446.00 146.00
C 446.66 158.09 443.15 163.13 429.00 160.00
C 418.95 157.77 425.71 138.08 424.00 129.00 C 422.29 119.92 426.05 103.31 423.00 94.00
C 428.42 89.43 434.78 88.80 442.01 90.01 C 449.23 91.21 446.15 103.47 447.00 110.00 C 447.85 116.53 459.45 113.82 465.00 113.00
C 468.74 106.23 460.86 95.37 467.75 91.75 C 474.63 88.12 483.34 88.23 490.00 92.00
C 487.15 112.37 490.89 135.05 488.00 155.00
M 224.00 144.00 
C 220.54 142.73 219.19 148.94 216.00 146.00
C 215.79 149.01 214.44 151.77 215.00 155.00
C 213.27 164.28 198.88 159.52 192.00 158.00
C 192.00 136.00 192.00 114.00 192.00 92.00
C 198.84 88.83 207.08 89.73 214.00 92.00
C 219.91 101.44 222.33 101.20 227.92 112.08 C 233.51 122.97 236.88 100.79 232.00 95.00
C 237.20 89.71 257.04 85.57 256.93 97.07 C 256.81 108.58 256.86 121.10 257.00 133.00 C 257.14 144.90 259.95 159.57 246.00 160.00 C 232.05 160.43 230.63 153.60 224.00 144.00
M 182.00 192.00 
C 180.85 194.71 179.82 197.52 178.00 200.00
C 179.20 202.64 185.44 206.11 184.00 211.00
C 181.17 212.26 175.02 213.16 176.00 208.00
C 171.46 206.24 166.29 215.16 162.31 210.69 C 158.32 206.23 167.12 202.31 167.00 198.00
C 162.54 196.46 161.42 190.69 162.00 186.00
C 168.74 180.76 168.04 191.22 175.00 190.00
C 175.46 182.64 188.66 186.86 182.00 192.00
M 57.00 192.00 
C 53.68 188.50 43.70 195.40 49.09 195.92 C 54.47 196.43 59.59 199.16 51.97 201.97 C 44.36 204.78 49.01 203.98 55.00 206.00 C 60.99 208.02 51.41 213.65 48.00 212.00 C 44.59 210.35 38.04 215.46 38.08 207.92 C 38.11 200.38 37.26 199.20 38.00 191.00 C 38.74 182.80 57.93 181.83 57.00 192.00
M 125.00 185.00 
C 136.46 182.56 141.16 190.75 141.00 201.00 C 140.84 211.25 128.98 214.87 120.92 209.08 C 112.86 203.29 116.39 186.83 125.00 185.00
M 284.00 202.00 
C 283.88 201.99 277.97 196.41 279.00 195.00
C 283.00 193.73 284.67 197.62 286.00 200.00
C 287.40 199.39 289.54 200.46 291.00 200.00
C 295.98 208.10 287.08 214.69 279.00 214.00 C 270.92 213.30 263.54 203.62 267.00 195.00 C 270.46 186.38 275.82 183.88 285.67 186.33 C 295.52 188.77 289.43 204.73 283.00 192.00
C 272.84 191.36 276.67 209.90 284.00 202.00
M 531.00 198.00 
C 542.83 206.86 527.78 215.84 517.78 212.22 C 507.78 208.61 508.32 194.67 514.75 187.75 C 521.18 180.83 540.46 187.72 531.00 198.00
M 87.00 203.00 
C 85.38 204.06 85.59 204.26 85.00 206.00
C 84.99 206.05 85.10 217.57 80.33 212.67 C 75.55 207.77 75.55 195.11 77.98 188.98 C 80.40 182.84 97.00 184.76 97.97 191.03 C 98.94 197.30 99.86 196.20 96.75 201.75 C 93.65 207.30 90.30 202.01 87.00 203.00
M 327.00 186.00 
C 342.52 189.61 336.91 216.49 321.00 212.00 C 305.09 207.51 311.05 182.29 327.00 186.00
M 370.00 186.00 
C 375.04 187.97 373.18 199.00 376.93 202.07 C 380.67 205.15 377.69 219.37 371.25 210.75 C 364.81 202.13 366.81 210.93 359.97 212.97 C 353.13 215.01 356.15 202.23 358.32 198.32 C 360.49 194.42 361.66 182.73 370.00 186.00
M 419.00 192.00 
C 416.03 191.71 415.02 194.57 412.00 195.00
C 414.63 200.96 410.85 216.50 404.75 210.25 C 398.66 203.99 409.77 191.76 397.00 192.00
C 395.14 182.54 419.93 182.71 419.00 192.00
M 481.00 196.00 
C 480.95 194.78 483.09 181.77 487.67 186.33 C 492.25 190.89 492.25 209.28 485.92 212.92 C 479.60 216.57 480.26 203.96 475.00 206.00
C 475.70 216.43 464.25 210.68 467.00 204.00 C 469.75 197.32 462.66 190.22 469.25 186.25 C 475.84 182.28 478.23 193.12 481.00 196.00
M 212.00 192.00 
C 214.80 190.54 222.95 183.34 223.97 190.03 C 224.99 196.71 215.98 196.39 217.22 203.22 C 218.47 210.06 211.11 215.04 210.01 206.99 C 208.91 198.95 208.36 199.31 204.23 192.77 C 200.10 186.23 211.35 184.88 212.00 192.00
M 444.00 187.00 
C 447.21 189.08 443.57 197.94 445.00 201.00 C 446.43 204.06 444.57 213.45 440.33 210.67 C 436.09 207.88 440.57 200.18 439.00 197.00 C 437.43 193.82 439.24 183.91 444.00 187.00 Z"/>
</g>
<g fill="#FBF2D6" fill-opacity="1.00" stroke="None">
<path d="
M 88.00 76.00 
C 75.67 77.64 70.09 74.54 57.00 76.00 C 43.91 77.46 52.13 89.79 63.00 87.00 C 73.87 84.21 83.75 88.72 93.01 86.01 C 102.26 83.29 105.72 80.36 111.75 73.75 C 117.79 67.15 119.76 58.50 119.00 50.00 C 118.24 41.50 115.88 34.32 109.75 28.25 C 103.62 22.18 98.29 18.70 88.98 18.02 C 79.67 17.35 67.02 18.34 57.00 18.00 C 46.98 17.66 36.47 18.25 26.00 18.00 C 15.53 17.75 18.24 -0.65 29.00 2.00 C 39.76 4.65 49.96 0.37 60.00 2.00 C 70.04 3.63 81.86 0.29 91.00 2.00 C 100.14 3.71 106.34 6.15 113.74 10.26 C 121.15 14.37 124.06 19.48 128.77 26.23 C 133.48 32.98 134.79 43.45 135.00 52.00 C 135.21 60.55 134.11 70.41 129.08 77.08 C 124.04 83.74 121.81 88.67 114.75 93.75 C 107.69 98.84 101.58 101.33 92.00 102.00 C 82.42 102.67 73.50 105.09 62.00 103.00 C 50.50 100.91 47.91 111.54 50.00 122.00 C 52.09 132.46 47.85 138.95 44.23 147.23 C 40.61 155.51 30.63 155.43 25.00 160.00
C 37.13 161.11 44.17 148.91 52.00 143.00
C 53.57 132.56 51.21 121.66 52.00 111.00 C 52.79 100.34 71.03 105.45 80.00 105.00 C 88.97 104.55 100.66 100.96 108.00 103.00
C 95.74 113.42 102.01 129.94 102.00 144.00
C 97.33 141.95 100.39 147.91 101.00 150.00
C 102.92 148.73 101.15 143.68 105.00 144.00
C 94.99 123.07 106.49 93.26 132.00 91.00 C 157.52 88.74 177.23 107.89 172.00 135.00
C 177.42 123.10 172.59 105.42 162.23 95.77 C 151.87 86.12 131.56 88.06 119.00 92.00
C 124.56 87.57 127.26 81.40 133.00 79.00
C 138.75 63.87 140.86 40.07 131.75 26.25 C 122.64 12.42 109.01 2.83 92.00 0.00
L 19.00 0.00
C 18.72 1.23 17.28 2.27 16.00 2.00
C 18.65 7.88 15.91 11.63 16.00 18.00
C 29.37 22.24 47.88 18.96 62.00 20.00 C 76.12 21.04 93.65 15.94 101.00 29.00
C 111.50 28.22 118.35 45.72 115.92 55.92 C 113.50 66.13 108.26 80.99 96.00 79.00
C 95.30 85.56 80.47 85.91 73.00 85.00 C 65.53 84.09 49.28 89.04 52.00 77.00
C 62.27 77.13 76.59 78.96 88.00 76.00 Z"/>
</g>
<g fill="#ECC782" fill-opacity="1.00" stroke="None">
<path d="
M 88.00 76.00 
C 97.93 73.43 106.25 66.96 107.00 56.00
C 107.73 45.35 101.50 34.06 91.00 31.00
C 98.28 34.21 104.34 43.41 104.78 51.22 C 105.22 59.03 101.21 71.10 90.98 71.98 C 80.74 72.85 71.35 77.40 59.00 74.00 C 46.65 70.60 44.16 90.70 56.00 90.00 C 67.84 89.29 78.23 88.99 89.00 89.00 C 99.77 89.01 103.71 82.28 111.25 76.25 C 118.78 70.22 121.12 60.44 121.00 51.00 C 120.88 41.56 116.84 34.35 110.75 27.25 C 104.65 20.16 96.69 16.40 87.00 16.00 C 77.31 15.60 62.07 17.96 53.00 16.00 C 43.93 14.04 24.77 22.47 22.01 11.99 C 19.25 1.51 40.43 3.61 49.00 4.00 C 57.57 4.39 73.77 3.72 83.00 4.00 C 92.23 4.28 103.78 6.09 110.68 11.32 C 117.58 16.55 122.08 21.93 127.25 28.75 C 132.42 35.58 133.93 49.67 133.00 58.00 C 132.07 66.33 128.68 78.51 120.00 80.00
C 124.86 86.55 115.77 88.97 110.92 91.92 C 106.07 94.87 100.60 98.40 93.98 99.98 C 87.35 101.55 75.77 100.46 69.00 101.00 C 62.23 101.54 49.53 97.91 48.01 105.01 C 46.49 112.11 47.33 122.01 47.00 129.00 C 46.67 135.99 46.15 144.52 41.08 149.08 C 36.01 153.64 31.29 155.91 25.00 156.00 C 18.71 156.09 9.10 161.41 7.03 153.97 C 4.95 146.54 9.48 136.77 7.00 129.00 C 4.52 121.23 10.46 111.51 17.25 117.75 C 24.03 124.00 15.69 135.60 19.00 142.00 C 22.31 148.40 31.59 144.99 34.25 138.25 C 36.92 131.52 33.13 121.62 35.00 113.00 C 36.87 104.38 30.78 99.15 21.00 102.00 C 11.22 104.85 4.86 101.00 6.00 92.00 C 7.14 83.00 5.61 74.45 6.00 66.00 C 6.39 57.55 5.99 51.77 9.92 44.92 C 13.86 38.08 19.93 37.80 24.00 33.00
C 17.60 35.67 12.36 37.72 8.75 44.75 C 5.13 51.77 4.48 60.33 5.00 69.00 C 5.52 77.67 4.30 88.07 5.00 97.00 C 5.70 105.93 17.54 103.90 27.00 103.00 C 36.46 102.10 33.88 117.49 34.00 124.00 C 34.12 130.51 33.29 142.81 25.00 143.00
C 23.67 143.03 22.33 142.98 21.00 143.00
C 22.59 135.92 18.87 127.99 21.00 121.00 C 23.13 114.01 10.43 110.59 6.33 114.33 C 2.23 118.07 5.61 129.17 5.00 135.00 C 4.39 140.83 4.49 150.77 5.00 157.00 C 5.51 163.23 19.80 158.55 24.00 160.00
C 24.00 160.00 24.51 159.95 25.00 160.00
C 30.63 155.43 40.61 155.51 44.23 147.23 C 47.85 138.95 52.09 132.46 50.00 122.00 C 47.91 111.54 50.50 100.91 62.00 103.00 C 73.50 105.09 82.42 102.67 92.00 102.00 C 101.58 101.33 107.69 98.84 114.75 93.75 C 121.81 88.67 124.04 83.74 129.08 77.08 C 134.11 70.41 135.21 60.55 135.00 52.00 C 134.79 43.45 133.48 32.98 128.77 26.23 C 124.06 19.48 121.15 14.37 113.74 10.26 C 106.34 6.15 100.14 3.71 91.00 2.00 C 81.86 0.29 70.04 3.63 60.00 2.00 C 49.96 0.37 39.76 4.65 29.00 2.00 C 18.24 -0.65 15.53 17.75 26.00 18.00 C 36.47 18.25 46.98 17.66 57.00 18.00 C 67.02 18.34 79.67 17.35 88.98 18.02 C 98.29 18.70 103.62 22.18 109.75 28.25 C 115.88 34.32 118.24 41.50 119.00 50.00 C 119.76 58.50 117.79 67.15 111.75 73.75 C 105.72 80.36 102.26 83.29 93.01 86.01 C 83.75 88.72 73.87 84.21 63.00 87.00 C 52.13 89.79 43.91 77.46 57.00 76.00 C 70.09 74.54 75.67 77.64 88.00 76.00 Z"/>
</g>
<g fill="#FABE5A" fill-opacity="1.00" stroke="None">
<path d="
M 91.00 31.00 
C 80.54 27.95 68.03 30.70 57.00 30.00 C 45.97 29.30 33.50 29.04 24.00 33.00
C 19.93 37.80 13.86 38.08 9.92 44.92 C 5.99 51.77 6.39 57.55 6.00 66.00 C 5.61 74.45 7.14 83.00 6.00 92.00 C 4.86 101.00 11.22 104.85 21.00 102.00 C 30.78 99.15 36.87 104.38 35.00 113.00 C 33.13 121.62 36.92 131.52 34.25 138.25 C 31.59 144.99 22.31 148.40 19.00 142.00 C 15.69 135.60 24.03 124.00 17.25 117.75 C 10.46 111.51 4.52 121.23 7.00 129.00 C 9.48 136.77 4.95 146.54 7.03 153.97 C 9.10 161.41 18.71 156.09 25.00 156.00 C 31.29 155.91 36.01 153.64 41.08 149.08 C 46.15 144.52 46.67 135.99 47.00 129.00 C 47.33 122.01 46.49 112.11 48.01 105.01 C 49.53 97.91 62.23 101.54 69.00 101.00 C 75.77 100.46 87.35 101.55 93.98 99.98 C 100.60 98.40 106.07 94.87 110.92 91.92 C 115.77 88.97 124.86 86.55 120.00 80.00
C 128.68 78.51 132.07 66.33 133.00 58.00 C 133.93 49.67 132.42 35.58 127.25 28.75 C 122.08 21.93 117.58 16.55 110.68 11.32 C 103.78 6.09 92.23 4.28 83.00 4.00 C 73.77 3.72 57.57 4.39 49.00 4.00 C 40.43 3.61 19.25 1.51 22.01 11.99 C 24.77 22.47 43.93 14.04 53.00 16.00 C 62.07 17.96 77.31 15.60 87.00 16.00 C 96.69 16.40 104.65 20.16 110.75 27.25 C 116.84 34.35 120.88 41.56 121.00 51.00 C 121.12 60.44 118.78 70.22 111.25 76.25 C 103.71 82.28 99.77 89.01 89.00 89.00 C 78.23 88.99 67.84 89.29 56.00 90.00 C 44.16 90.70 46.65 70.60 59.00 74.00 C 71.35 77.40 80.74 72.85 90.98 71.98 C 101.21 71.10 105.22 59.03 104.78 51.22 C 104.34 43.41 98.28 34.21 91.00 31.00
M 90.00 45.00 
C 91.20 49.38 94.59 59.05 86.32 60.32 C 78.05 61.59 70.41 60.85 62.00 61.00 C 53.59 61.15 45.39 60.89 37.00 61.00
C 32.63 67.80 39.43 78.45 37.00 85.00 C 34.57 91.55 17.30 89.50 20.00 81.00 C 22.70 72.50 17.65 62.56 20.78 54.78 C 23.90 47.00 28.51 44.04 37.00 44.00 C 45.49 43.97 55.38 43.87 64.00 44.00 C 72.62 44.13 81.78 43.17 90.00 45.00 Z"/>
</g>
<g fill="#FEFCDE" fill-opacity="1.00" stroke="None">
<path d="
M 4.00 64.00 
C 4.00 49.90 9.08 36.19 23.08 31.08 C 37.07 25.96 58.84 30.70 73.00 29.00 C 87.16 27.30 105.19 31.18 108.00 46.00
C 106.22 30.05 87.89 25.64 73.00 27.00 C 58.11 28.36 35.67 23.44 21.25 29.25 C 6.83 35.05 2.72 50.78 4.00 64.00 Z"/>
</g>
<g fill="#FCEAB8" fill-opacity="1.00" stroke="None">
<path d="
M 4.00 64.00 
C 4.00 69.33 4.00 74.67 4.00 80.00
C 4.00 86.36 3.69 93.75 4.00 100.00 C 4.31 106.25 14.59 104.57 20.00 104.00 C 25.41 103.43 34.40 104.22 33.00 111.00 C 31.60 117.78 34.02 126.28 33.00 131.00 C 31.98 135.72 28.86 142.32 25.00 143.00
C 33.29 142.81 34.12 130.51 34.00 124.00 C 33.88 117.49 36.46 102.10 27.00 103.00 C 17.54 103.90 5.70 105.93 5.00 97.00 C 4.30 88.07 5.52 77.67 5.00 69.00 C 4.48 60.33 5.13 51.77 8.75 44.75 C 12.36 37.72 17.60 35.67 24.00 33.00
C 33.50 29.04 45.97 29.30 57.00 30.00 C 68.03 30.70 80.54 27.95 91.00 31.00
C 101.50 34.06 107.73 45.35 107.00 56.00
C 107.50 53.19 108.40 49.56 108.00 46.00
C 105.19 31.18 87.16 27.30 73.00 29.00 C 58.84 30.70 37.07 25.96 23.08 31.08 C 9.08 36.19 4.00 49.90 4.00 64.00 Z"/>
</g>
<g fill="#ECCE91" fill-opacity="1.00" stroke="None">
<path d="
M 90.00 45.00 
C 81.78 43.17 72.62 44.13 64.00 44.00 C 55.38 43.87 45.49 43.97 37.00 44.00 C 28.51 44.04 23.90 47.00 20.78 54.78 C 17.65 62.56 22.70 72.50 20.00 81.00 C 17.30 89.50 34.57 91.55 37.00 85.00 C 39.43 78.45 32.63 67.80 37.00 61.00
C 45.39 60.89 53.59 61.15 62.00 61.00 C 70.41 60.85 78.05 61.59 86.32 60.32 C 94.59 59.05 91.20 49.38 90.00 45.00
M 86.00 46.00 
C 95.31 48.83 89.99 63.18 79.00 60.00 C 68.01 56.82 59.34 62.65 47.00 60.00 C 34.66 57.35 31.70 66.13 34.00 79.00 C 36.30 91.87 17.70 87.54 21.00 77.00 C 24.30 66.46 17.17 56.40 25.75 49.75 C 34.34 43.11 43.98 45.41 54.00 46.00 C 64.02 46.59 76.55 43.13 86.00 46.00 Z"/>
</g>
<g fill="#FEF5CE" fill-opacity="1.00" stroke="None">
<path d="
M 86.00 46.00 
C 76.55 43.13 64.02 46.59 54.00 46.00 C 43.98 45.41 34.34 43.11 25.75 49.75 C 17.17 56.40 24.30 66.46 21.00 77.00 C 17.70 87.54 36.30 91.87 34.00 79.00 C 31.70 66.13 34.66 57.35 47.00 60.00 C 59.34 62.65 68.01 56.82 79.00 60.00 C 89.99 63.18 95.31 48.83 86.00 46.00
M 86.00 47.00 
C 94.14 51.21 84.06 60.07 78.00 58.00 C 71.94 55.93 60.95 57.84 55.00 58.00 C 49.05 58.16 36.85 54.66 33.25 60.25 C 29.65 65.84 35.64 75.03 32.02 82.02 C 28.41 89.02 20.51 85.50 22.00 77.00 C 23.49 68.50 20.59 61.98 23.93 54.93 C 27.26 47.87 31.50 46.14 39.00 47.00 C 46.50 47.86 54.90 45.41 62.00 47.00 C 69.10 48.59 79.73 43.76 86.00 47.00 Z"/>
</g>
<g fill="#FCFDF8" fill-opacity="1.00" stroke="None">
<path d="
M 86.00 47.00 
C 79.73 43.76 69.10 48.59 62.00 47.00 C 54.90 45.41 46.50 47.86 39.00 47.00 C 31.50 46.14 27.26 47.87 23.93 54.93 C 20.59 61.98 23.49 68.50 22.00 77.00 C 20.51 85.50 28.41 89.02 32.02 82.02 C 35.64 75.03 29.65 65.84 33.25 60.25 C 36.85 54.66 49.05 58.16 55.00 58.00 C 60.95 57.84 71.94 55.93 78.00 58.00 C 84.06 60.07 94.14 51.21 86.00 47.00 Z"/>
</g>
<g fill="#FEF8DA" fill-opacity="1.00" stroke="None">
<path d="
M 24.00 160.00 
C 19.80 158.55 5.51 163.23 5.00 157.00 C 4.49 150.77 4.39 140.83 5.00 135.00 C 5.61 129.17 2.23 118.07 6.33 114.33 C 10.43 110.59 23.13 114.01 21.00 121.00 C 18.87 127.99 22.59 135.92 21.00 143.00
C 22.33 142.98 23.67 143.03 25.00 143.00
C 28.86 142.32 31.98 135.72 33.00 131.00 C 34.02 126.28 31.60 117.78 33.00 111.00 C 34.40 104.22 25.41 103.43 20.00 104.00 C 14.59 104.57 4.31 106.25 4.00 100.00 C 3.69 93.75 4.00 86.36 4.00 80.00
C 4.60 85.28 -0.80 98.87 4.25 103.75 C 9.31 108.62 19.45 103.79 27.00 105.00 C 34.54 106.21 31.66 117.83 32.00 124.00 C 32.34 130.17 29.70 139.13 23.00 140.00
C 19.75 130.31 28.84 116.15 16.00 113.00 C 3.16 109.85 -0.27 120.08 3.00 131.00 C 6.27 141.92 -0.67 151.32 4.00 161.00
C 9.80 159.41 19.19 163.56 24.00 160.00 Z"/>
</g>
<g fill="#E9DDCA" fill-opacity="1.00" stroke="None">
<path d="
M 578.00 141.00 
L 578.00 135.00
C 566.84 170.71 511.94 166.86 510.07 127.93 C 508.20 89.00 562.45 76.78 578.00 111.00
L 578.00 107.00
C 574.38 107.04 576.61 102.22 576.00 100.00
C 564.06 90.20 544.05 84.68 528.25 91.25 C 512.45 97.81 506.87 117.80 508.01 133.99 C 509.15 150.18 525.57 162.76 540.78 163.78 C 555.99 164.80 571.47 154.78 578.00 141.00 Z"/>
</g>
<g fill="#EFE3CE" fill-opacity="1.00" stroke="None">
<path d="
M 293.00 117.00 
C 293.13 114.81 294.03 113.24 294.00 111.00
C 292.45 109.05 289.10 111.20 288.00 109.00
C 285.33 108.90 275.00 109.90 273.77 107.23 C 272.54 104.56 272.97 95.05 275.00 93.00
C 279.36 88.59 290.37 93.28 297.00 92.00 C 303.63 90.72 312.41 92.47 320.00 92.00 C 327.59 91.53 335.64 89.54 336.00 99.00
C 337.03 85.62 325.44 91.98 315.00 90.00 C 304.56 88.02 294.78 93.52 284.00 90.00 C 273.22 86.47 268.48 97.71 272.08 106.92 C 275.69 116.12 288.86 107.95 293.00 117.00 Z"/>
</g>
<g fill="#F8ECD8" fill-opacity="1.00" stroke="None">
<path d="
M 352.00 107.00 
C 356.62 94.79 369.28 91.89 380.00 91.00 C 390.72 90.11 408.76 100.14 402.00 112.00
C 401.78 112.38 402.00 113.00 402.00 113.00
C 408.89 112.94 402.05 100.39 399.19 97.25 C 396.33 94.12 391.29 88.27 384.00 89.00 C 376.71 89.73 368.90 89.66 362.03 92.03 C 355.16 94.39 352.90 100.58 352.00 107.00 Z"/>
</g>
<g fill="#EEE3CE" fill-opacity="1.00" stroke="None">
<path d="
M 429.00 160.00 
C 422.49 157.83 425.23 146.98 425.00 141.00 C 424.77 135.02 424.68 123.19 425.00 117.00 C 425.32 110.81 423.83 99.26 425.00 94.00 C 426.17 88.74 443.88 91.73 445.00 94.00
C 447.44 98.93 440.69 114.02 447.25 116.75 C 453.81 119.48 465.39 118.11 467.00 112.00
C 468.58 100.44 466.66 88.84 481.00 92.00 C 495.34 95.16 486.86 109.27 488.00 120.00 C 489.14 130.73 489.45 144.35 488.00 155.00
C 490.89 135.05 487.15 112.37 490.00 92.00
C 483.34 88.23 474.63 88.12 467.75 91.75 C 460.86 95.37 468.74 106.23 465.00 113.00
C 459.45 113.82 447.85 116.53 447.00 110.00 C 446.15 103.47 449.23 91.21 442.01 90.01 C 434.78 88.80 428.42 89.43 423.00 94.00
C 426.05 103.31 422.29 119.92 424.00 129.00 C 425.71 138.08 418.95 157.77 429.00 160.00 Z"/>
</g>
<g fill="#EAD8BA" fill-opacity="1.00" stroke="None">
<path d="
M 215.00 155.00 
C 215.32 147.12 211.04 140.28 216.00 134.00
C 219.75 135.35 223.37 140.03 224.00 144.00
C 230.63 153.60 232.05 160.43 246.00 160.00 C 259.95 159.57 257.14 144.90 257.00 133.00 C 256.86 121.10 256.81 108.58 256.93 97.07 C 257.04 85.57 237.20 89.71 232.00 95.00
C 236.88 100.79 233.51 122.97 227.92 112.08 C 222.33 101.20 219.91 101.44 214.00 92.00
C 207.08 89.73 198.84 88.83 192.00 92.00
C 192.00 114.00 192.00 136.00 192.00 158.00
C 198.88 159.52 213.27 164.28 215.00 155.00
M 213.00 128.00 
C 214.67 136.38 210.30 139.24 212.00 148.00 C 213.70 156.76 208.37 159.18 200.00 158.00 C 191.63 156.82 195.82 148.99 195.00 142.00 C 194.18 135.01 195.79 127.12 195.00 120.00 C 194.21 112.88 196.33 106.22 195.00 99.00 C 193.67 91.78 205.36 90.81 210.67 93.33 C 215.98 95.85 215.45 100.49 220.25 104.75 C 225.05 109.02 224.88 110.97 229.75 117.25 C 234.63 123.52 236.19 118.79 236.00 112.00 C 235.81 105.21 234.64 96.28 239.08 93.08 C 243.53 89.89 254.99 92.64 254.00 99.00 C 253.01 105.36 254.66 114.36 254.00 121.00 C 253.34 127.64 254.74 135.43 254.00 142.00 C 253.26 148.57 257.49 158.68 248.00 158.00 C 238.51 157.32 239.64 159.50 232.75 152.25 C 225.85 145.01 221.66 132.26 213.00 128.00 Z"/>
</g>
<g fill="#EAD3AE" fill-opacity="1.00" stroke="None">
<path d="
M 105.00 144.00 
C 108.59 151.51 117.15 159.20 126.00 160.00
C 132.10 160.55 138.88 160.33 145.00 160.00
C 157.81 159.30 169.64 147.20 172.00 135.00
C 177.23 107.89 157.52 88.74 132.00 91.00 C 106.49 93.26 94.99 123.07 105.00 144.00
M 144.00 92.00 
C 168.85 95.55 178.90 129.19 164.03 147.03 C 149.15 164.86 114.69 165.11 105.23 140.77 C 95.77 116.43 116.57 88.08 144.00 92.00 Z"/>
</g>
<g fill="#E7CDA2" fill-opacity="1.00" stroke="None">
<path d="
M 352.00 107.00 
C 351.07 113.67 350.18 119.04 354.00 125.00
C 357.19 127.78 363.48 129.43 366.67 132.33 C 369.86 135.23 378.90 134.14 380.75 138.25 C 382.61 142.36 372.24 146.24 368.77 140.23 C 365.30 134.22 363.16 136.30 355.00 136.00 C 346.83 135.70 349.43 142.63 349.00 149.00
C 349.00 149.00 348.90 149.52 349.00 150.00
C 361.50 160.93 375.93 161.73 391.08 157.08 C 406.22 152.42 410.00 132.71 398.00 122.00
C 396.11 121.10 394.95 120.65 393.00 120.00
C 386.54 117.85 377.60 116.24 374.00 110.00
C 375.55 108.94 378.89 108.09 380.00 110.00
C 380.50 110.02 381.00 110.00 381.00 110.00
C 384.32 110.65 386.13 114.62 390.01 113.99 C 393.89 113.37 397.77 111.17 402.00 112.00
C 408.76 100.14 390.72 90.11 380.00 91.00 C 369.28 91.89 356.62 94.79 352.00 107.00
M 401.00 111.00 
C 389.52 116.57 388.59 106.32 378.00 107.00 C 367.41 107.68 375.10 118.43 383.07 118.93 C 391.05 119.42 397.06 123.78 400.97 130.03 C 404.88 136.27 403.92 145.79 396.75 150.75 C 389.58 155.71 384.14 158.77 374.00 158.00 C 363.86 157.23 362.55 156.77 353.75 149.25 C 344.96 141.73 357.37 134.33 363.67 138.33 C 369.97 142.33 379.97 149.52 383.92 140.92 C 387.87 132.31 371.38 133.78 366.32 130.68 C 361.26 127.57 352.94 122.34 354.00 114.00 C 355.06 105.66 356.83 99.22 365.01 96.01 C 373.18 92.80 381.35 91.95 389.25 94.75 C 397.14 97.56 403.17 102.02 401.00 111.00 Z"/>
</g>
<g fill="#EDCD98" fill-opacity="1.00" stroke="None">
<path d="
M 578.00 135.00 
L 578.00 127.00
C 575.21 144.30 563.25 156.80 545.00 158.00 C 526.75 159.20 511.12 146.20 511.22 127.78 C 511.32 109.36 521.97 96.09 540.00 93.00 C 558.04 89.91 575.95 102.33 578.00 120.00
L 578.00 111.00
C 562.45 76.78 508.20 89.00 510.07 127.93 C 511.94 166.86 566.84 170.71 578.00 135.00 Z"/>
</g>
<g fill="#F7BE60" fill-opacity="1.00" stroke="None">
<path d="
M 144.00 92.00 
C 116.57 88.08 95.77 116.43 105.23 140.77 C 114.69 165.11 149.15 164.86 164.03 147.03 C 178.90 129.19 168.85 95.55 144.00 92.00
M 143.00 108.00 
C 161.86 112.67 151.12 151.82 131.98 143.02 C 112.83 134.23 122.65 102.96 143.00 108.00 Z"/>
</g>
<g fill="#E9D2AE" fill-opacity="1.00" stroke="None">
<path d="
M 275.00 93.00 
C 279.64 89.72 291.22 94.50 297.00 93.00 C 302.78 91.50 313.12 93.73 319.00 93.00 C 324.88 92.27 336.57 91.25 334.67 98.67 C 332.77 106.10 331.95 110.05 322.78 108.78 C 313.61 107.51 312.11 112.72 313.00 121.00 C 313.89 129.28 312.72 134.87 313.00 143.00 C 313.28 151.13 315.46 157.59 306.00 158.00 C 296.54 158.41 294.25 156.05 295.00 147.00 C 295.75 137.95 294.86 133.46 295.00 125.00 C 295.14 116.54 297.72 109.37 288.00 109.00
C 289.10 111.20 292.45 109.05 294.00 111.00
C 294.03 113.24 293.13 114.81 293.00 117.00
C 291.48 129.02 295.03 136.54 293.00 149.00 C 290.97 161.46 302.27 161.36 313.00 160.00
C 316.75 145.59 314.63 129.26 315.00 114.00
C 315.01 113.51 313.01 111.22 314.00 110.00
C 315.83 109.77 317.47 110.07 319.00 111.00
C 329.81 110.39 336.51 112.43 336.00 99.00
C 335.64 89.54 327.59 91.53 320.00 92.00 C 312.41 92.47 303.63 90.72 297.00 92.00 C 290.37 93.28 279.36 88.59 275.00 93.00 Z"/>
</g>
<g fill="#E7CFA6" fill-opacity="1.00" stroke="None">
<path d="
M 429.00 160.00 
C 443.15 163.13 446.66 158.09 446.00 146.00
C 445.62 139.09 446.22 134.16 454.00 135.00 C 461.79 135.84 465.33 133.21 466.00 142.00
C 467.24 146.96 462.20 157.86 469.00 160.00 C 475.80 162.14 481.77 160.92 488.00 159.00
C 488.25 157.73 487.67 156.25 488.00 155.00
C 489.45 144.35 489.14 130.73 488.00 120.00 C 486.86 109.27 495.34 95.16 481.00 92.00 C 466.66 88.84 468.58 100.44 467.00 112.00
C 468.51 106.27 467.49 99.07 469.00 93.00
C 476.58 92.86 486.47 90.80 486.00 100.00 C 485.52 109.20 485.50 115.18 486.00 124.00 C 486.50 132.82 484.19 139.02 486.00 148.00 C 487.81 156.98 478.99 160.97 471.00 158.00 C 463.01 155.03 470.73 142.50 468.00 137.00 C 465.27 131.50 454.53 131.37 448.00 133.00 C 441.47 134.63 444.29 146.37 444.00 153.00 C 443.71 159.63 433.51 157.06 428.00 158.00
C 425.27 148.75 428.24 140.92 427.00 131.00 C 425.76 121.08 429.01 113.69 427.00 103.00 C 424.99 92.31 435.72 90.45 445.00 94.00
C 443.88 91.73 426.17 88.74 425.00 94.00 C 423.83 99.26 425.32 110.81 425.00 117.00 C 424.68 123.19 424.77 135.02 425.00 141.00 C 425.23 146.98 422.49 157.83 429.00 160.00 Z"/>
</g>
<g fill="#EBC178" fill-opacity="1.00" stroke="None">
<path d="
M 213.00 128.00 
C 221.66 132.26 225.85 145.01 232.75 152.25 C 239.64 159.50 238.51 157.32 248.00 158.00 C 257.49 158.68 253.26 148.57 254.00 142.00 C 254.74 135.43 253.34 127.64 254.00 121.00 C 254.66 114.36 253.01 105.36 254.00 99.00 C 254.99 92.64 243.53 89.89 239.08 93.08 C 234.64 96.28 235.81 105.21 236.00 112.00 C 236.19 118.79 234.63 123.52 229.75 117.25 C 224.88 110.97 225.05 109.02 220.25 104.75 C 215.45 100.49 215.98 95.85 210.67 93.33 C 205.36 90.81 193.67 91.78 195.00 99.00 C 196.33 106.22 194.21 112.88 195.00 120.00 C 195.79 127.12 194.18 135.01 195.00 142.00 C 195.82 148.99 191.63 156.82 200.00 158.00 C 208.37 159.18 213.70 156.76 212.00 148.00 C 210.30 139.24 214.67 136.38 213.00 128.00
M 253.00 155.00 
C 229.81 161.83 228.95 127.23 211.00 122.00
C 206.71 133.08 218.21 162.38 197.00 155.00
C 198.42 145.28 195.71 131.18 197.00 121.00 C 198.29 110.82 192.30 94.94 205.00 95.00 C 217.70 95.06 213.15 109.42 224.00 112.00
C 223.73 119.96 233.14 123.41 235.00 130.00
C 246.85 125.74 231.53 99.35 243.01 94.01 C 254.50 88.67 251.67 103.19 252.00 109.00 C 252.33 114.81 251.64 125.29 252.00 132.00 C 252.36 138.71 250.93 148.51 253.00 155.00 Z"/>
</g>
<g fill="#EBC378" fill-opacity="1.00" stroke="None">
<path d="
M 288.00 109.00 
C 297.72 109.37 295.14 116.54 295.00 125.00 C 294.86 133.46 295.75 137.95 295.00 147.00 C 294.25 156.05 296.54 158.41 306.00 158.00 C 315.46 157.59 313.28 151.13 313.00 143.00 C 312.72 134.87 313.89 129.28 313.00 121.00 C 312.11 112.72 313.61 107.51 322.78 108.78 C 331.95 110.05 332.77 106.10 334.67 98.67 C 336.57 91.25 324.88 92.27 319.00 93.00 C 313.12 93.73 302.78 91.50 297.00 93.00 C 291.22 94.50 279.64 89.72 275.00 93.00
C 272.97 95.05 272.54 104.56 273.77 107.23 C 275.00 109.90 285.33 108.90 288.00 109.00
M 330.00 106.00 
C 323.36 107.07 313.72 102.99 310.00 110.00
C 312.31 124.17 310.35 139.42 311.00 154.00
C 303.43 158.25 296.95 155.96 297.60 148.26 C 298.24 140.56 296.62 131.20 297.00 124.00 C 297.38 116.80 300.23 106.93 291.97 106.03 C 283.72 105.12 275.31 108.39 276.00 97.00
C 284.30 91.29 298.74 94.74 309.00 94.00 C 319.26 93.26 337.60 91.14 330.00 106.00 Z"/>
</g>
<g fill="#F8BE5E" fill-opacity="1.00" stroke="None">
<path d="
M 401.00 111.00 
C 403.17 102.02 397.14 97.56 389.25 94.75 C 381.35 91.95 373.18 92.80 365.01 96.01 C 356.83 99.22 355.06 105.66 354.00 114.00 C 352.94 122.34 361.26 127.57 366.32 130.68 C 371.38 133.78 387.87 132.31 383.92 140.92 C 379.97 149.52 369.97 142.33 363.67 138.33 C 357.37 134.33 344.96 141.73 353.75 149.25 C 362.55 156.77 363.86 157.23 374.00 158.00 C 384.14 158.77 389.58 155.71 396.75 150.75 C 403.92 145.79 404.88 136.27 400.97 130.03 C 397.06 123.78 391.05 119.42 383.07 118.93 C 375.10 118.43 367.41 107.68 378.00 107.00 C 388.59 106.32 389.52 116.57 401.00 111.00 Z"/>
</g>
<g fill="#F8BE60" fill-opacity="1.00" stroke="None">
<path d="
M 467.00 112.00 
C 465.39 118.11 453.81 119.48 447.25 116.75 C 440.69 114.02 447.44 98.93 445.00 94.00
C 435.72 90.45 424.99 92.31 427.00 103.00 C 429.01 113.69 425.76 121.08 427.00 131.00 C 428.24 140.92 425.27 148.75 428.00 158.00
C 433.51 157.06 443.71 159.63 444.00 153.00 C 444.29 146.37 441.47 134.63 448.00 133.00 C 454.53 131.37 465.27 131.50 468.00 137.00 C 470.73 142.50 463.01 155.03 471.00 158.00 C 478.99 160.97 487.81 156.98 486.00 148.00 C 484.19 139.02 486.50 132.82 486.00 124.00 C 485.50 115.18 485.52 109.20 486.00 100.00 C 486.47 90.80 476.58 92.86 469.00 93.00
C 467.49 99.07 468.51 106.27 467.00 112.00 Z"/>
</g>
<g fill="#F8BE5E" fill-opacity="1.00" stroke="None">
<path d="
M 578.00 127.00 
L 578.00 120.00
C 575.95 102.33 558.04 89.91 540.00 93.00 C 521.97 96.09 511.32 109.36 511.22 127.78 C 511.12 146.20 526.75 159.20 545.00 158.00 C 563.25 156.80 575.21 144.30 578.00 127.00
M 548.00 107.00 
C 566.90 110.16 560.80 148.28 540.93 143.07 C 521.05 137.86 527.17 103.52 548.00 107.00 Z"/>
</g>
<g fill="#FBBE57" fill-opacity="1.00" stroke="None">
<path d="
M 253.00 155.00 
C 250.93 148.51 252.36 138.71 252.00 132.00 C 251.64 125.29 252.33 114.81 252.00 109.00 C 251.67 103.19 254.50 88.67 243.01 94.01 C 231.53 99.35 246.85 125.74 235.00 130.00
C 233.14 123.41 223.73 119.96 224.00 112.00
C 213.15 109.42 217.70 95.06 205.00 95.00 C 192.30 94.94 198.29 110.82 197.00 121.00 C 195.71 131.18 198.42 145.28 197.00 155.00
C 218.21 162.38 206.71 133.08 211.00 122.00
C 228.95 127.23 229.81 161.83 253.00 155.00 Z"/>
</g>
<g fill="#FBBD57" fill-opacity="1.00" stroke="None">
<path d="
M 330.00 106.00 
C 337.60 91.14 319.26 93.26 309.00 94.00 C 298.74 94.74 284.30 91.29 276.00 97.00
C 275.31 108.39 283.72 105.12 291.97 106.03 C 300.23 106.93 297.38 116.80 297.00 124.00 C 296.62 131.20 298.24 140.56 297.60 148.26 C 296.95 155.96 303.43 158.25 311.00 154.00
C 310.35 139.42 312.31 124.17 310.00 110.00
C 313.72 102.99 323.36 107.07 330.00 106.00 Z"/>
</g>
<g fill="#E2CDAC" fill-opacity="1.00" stroke="None">
<path d="
M 548.00 107.00 
C 527.17 103.52 521.05 137.86 540.93 143.07 C 560.80 148.28 566.90 110.16 548.00 107.00
M 548.00 110.00 
C 563.83 114.22 558.13 144.76 541.00 141.00 C 523.87 137.24 532.67 105.92 548.00 110.00 Z"/>
</g>
<g fill="#E8CB9A" fill-opacity="1.00" stroke="None">
<path d="
M 143.00 108.00 
C 122.65 102.96 112.83 134.23 131.98 143.02 C 151.12 151.82 161.86 112.67 143.00 108.00
M 141.00 109.00 
C 159.00 113.19 151.34 146.68 133.33 141.67 C 115.32 136.66 122.99 104.81 141.00 109.00 Z"/>
</g>
<g fill="#E3D6C0" fill-opacity="1.00" stroke="None">
<path d="
M 141.00 109.00 
C 122.99 104.81 115.32 136.66 133.33 141.67 C 151.34 146.68 159.00 113.19 141.00 109.00
M 140.00 110.00 
C 157.12 113.17 149.96 142.03 134.00 139.00 C 118.04 135.97 125.12 107.25 140.00 110.00 Z"/>
</g>
<g fill="#D2D0C4" fill-opacity="1.00" stroke="None">
<path d="
M 393.00 120.00 
C 387.71 114.06 401.43 114.03 402.00 113.00
C 402.00 113.00 401.78 112.38 402.00 112.00
C 397.77 111.17 393.89 113.37 390.01 113.99 C 386.13 114.62 384.32 110.65 381.00 110.00
C 380.28 112.27 377.96 112.06 376.00 112.00
C 375.37 109.47 378.53 110.10 380.00 110.00
C 378.89 108.09 375.55 108.94 374.00 110.00
C 377.60 116.24 386.54 117.85 393.00 120.00 Z"/>
</g>
<g fill="#E5E7E6" fill-opacity="1.00" stroke="None">
<path d="
M 140.00 110.00 
C 125.12 107.25 118.04 135.97 134.00 139.00 C 149.96 142.03 157.12 113.17 140.00 110.00 Z"/>
</g>
<g fill="#D0BFB8" fill-opacity="1.00" stroke="None">
<path d="
M 315.00 114.00 
C 317.40 114.77 317.63 111.69 319.00 111.00
C 317.47 110.07 315.83 109.77 314.00 110.00
C 313.01 111.22 315.01 113.51 315.00 114.00 Z"/>
</g>
<g fill="#C0C3CF" fill-opacity="1.00" stroke="None">
<path d="
M 381.00 110.00 
C 381.00 110.00 380.50 110.02 380.00 110.00
C 378.53 110.10 375.37 109.47 376.00 112.00
C 377.96 112.06 380.28 112.27 381.00 110.00 Z"/>
</g>
<g fill="#E7E7E5" fill-opacity="1.00" stroke="None">
<path d="
M 548.00 110.00 
C 532.67 105.92 523.87 137.24 541.00 141.00 C 558.13 144.76 563.83 114.22 548.00 110.00 Z"/>
</g>
<g fill="#DFDAD2" fill-opacity="1.00" stroke="None">
<path d="
M 349.00 150.00 
C 354.68 164.42 377.32 169.58 391.75 162.75 C 406.18 155.92 409.71 135.08 402.00 122.00
C 400.85 121.60 399.09 122.52 398.00 122.00
C 410.00 132.71 406.22 152.42 391.08 157.08 C 375.93 161.73 361.50 160.93 349.00 150.00 Z"/>
</g>
<g fill="#D8D2C5" fill-opacity="1.00" stroke="None">
<path d="
M 349.00 149.00 
C 349.43 142.63 346.83 135.70 355.00 136.00 C 363.16 136.30 365.30 134.22 368.77 140.23 C 372.24 146.24 382.61 142.36 380.75 138.25 C 378.90 134.14 369.86 135.23 366.67 132.33 C 363.48 129.43 357.19 127.78 354.00 125.00
C 355.48 128.08 356.91 128.89 360.00 129.00
C 361.95 135.58 354.08 135.96 350.00 134.00
C 347.68 136.44 344.03 146.74 349.00 149.00 Z"/>
</g>
<g fill="#D5D2CE" fill-opacity="1.00" stroke="None">
<path d="
M 215.00 155.00 
C 214.44 151.77 215.79 149.01 216.00 146.00
C 219.19 148.94 220.54 142.73 224.00 144.00
C 223.37 140.03 219.75 135.35 216.00 134.00
C 211.04 140.28 215.32 147.12 215.00 155.00 Z"/>
</g>
<g fill="#CFCDCB" fill-opacity="1.00" stroke="None">
<path d="
M 446.00 146.00 
C 447.76 145.50 446.72 143.28 447.00 142.00
C 450.86 139.77 463.16 135.99 466.00 142.00
C 465.33 133.21 461.79 135.84 454.00 135.00 C 446.22 134.16 445.62 139.09 446.00 146.00 Z"/>
</g>
<g fill="#D8CDC5" fill-opacity="1.00" stroke="None">
<path d="
M 145.00 160.00 
C 138.88 160.33 132.10 160.55 126.00 160.00
C 133.27 162.36 137.32 161.64 145.00 160.00 Z"/>
</g>
<g fill="#EDD09F" fill-opacity="1.00" stroke="None">
<path d="
M 178.00 200.00 
C 177.53 198.96 176.39 197.65 177.00 196.00
C 179.73 196.39 180.37 193.07 182.00 192.00
C 188.66 186.86 175.46 182.64 175.00 190.00
C 168.04 191.22 168.74 180.76 162.00 186.00
C 161.42 190.69 162.54 196.46 167.00 198.00
C 167.12 202.31 158.32 206.23 162.31 210.69 C 166.29 215.16 171.46 206.24 176.00 208.00
C 175.02 213.16 181.17 212.26 184.00 211.00
C 185.44 206.11 179.20 202.64 178.00 200.00 Z"/>
</g>
<g fill="#EFDAB4" fill-opacity="1.00" stroke="None">
<path d="
M 57.00 192.00 
C 57.93 181.83 38.74 182.80 38.00 191.00 C 37.26 199.20 38.11 200.38 38.08 207.92 C 38.04 215.46 44.59 210.35 48.00 212.00 C 51.41 213.65 60.99 208.02 55.00 206.00 C 49.01 203.98 44.36 204.78 51.97 201.97 C 59.59 199.16 54.47 196.43 49.09 195.92 C 43.70 195.40 53.68 188.50 57.00 192.00
M 54.00 190.00 
C 50.61 191.47 43.86 190.35 46.00 197.00
C 49.03 197.26 52.37 196.26 55.00 198.00
C 53.54 202.07 49.05 201.08 46.00 200.00
C 41.41 208.10 52.02 206.46 56.00 208.00
C 46.83 212.46 39.79 211.29 40.00 200.00 C 40.21 188.71 43.23 184.61 54.00 190.00 Z"/>
</g>
<g fill="#ECCF98" fill-opacity="1.00" stroke="None">
<path d="
M 125.00 185.00 
C 116.39 186.83 112.86 203.29 120.92 209.08 C 128.98 214.87 140.84 211.25 141.00 201.00 C 141.16 190.75 136.46 182.56 125.00 185.00
M 131.00 193.00 
C 136.12 194.48 134.88 206.83 128.33 204.67 C 121.77 202.50 125.67 191.46 131.00 193.00 Z"/>
</g>
<g fill="#F3E5C9" fill-opacity="1.00" stroke="None">
<path d="
M 286.00 200.00 
C 285.86 200.06 284.22 201.80 284.00 202.00
C 276.67 209.90 272.84 191.36 283.00 192.00
C 289.43 204.73 295.52 188.77 285.67 186.33 C 275.82 183.88 270.46 186.38 267.00 195.00 C 263.54 203.62 270.92 213.30 279.00 214.00 C 287.08 214.69 295.98 208.10 291.00 200.00
C 289.54 200.46 287.40 199.39 286.00 200.00
M 290.00 195.00 
C 284.84 196.07 283.76 188.92 278.00 191.00
C 276.90 195.89 272.25 199.94 276.77 205.23 C 281.29 210.52 285.06 202.10 290.00 203.00
C 287.77 216.67 268.15 212.13 269.00 199.00 C 269.85 185.87 286.61 182.33 290.00 195.00 Z"/>
</g>
<g fill="#ECD8B1" fill-opacity="1.00" stroke="None">
<path d="
M 531.00 198.00 
C 540.46 187.72 521.18 180.83 514.75 187.75 C 508.32 194.67 507.78 208.61 517.78 212.22 C 527.78 215.84 542.83 206.86 531.00 198.00
M 526.00 199.00 
C 532.30 198.97 533.63 205.68 530.00 210.00
C 525.08 208.96 519.35 212.17 515.25 207.75 C 511.15 203.33 511.09 195.44 513.21 191.77 C 515.34 188.09 523.96 181.95 529.07 187.93 C 534.18 193.90 528.50 191.78 522.97 190.03 C 517.45 188.27 514.19 198.75 517.75 203.25 C 521.32 207.74 528.25 210.02 526.00 199.00
M 525.00 197.00 
C 524.66 199.76 523.20 202.89 524.00 206.00
C 522.03 205.55 519.06 204.30 519.00 202.00
C 517.13 199.07 516.34 198.90 519.00 196.00
C 519.51 195.45 519.63 194.58 520.00 194.00
C 523.41 188.68 525.34 194.24 525.00 197.00 Z"/>
</g>
<g fill="#F2E3D0" fill-opacity="1.00" stroke="None">
<path d="
M 85.00 206.00 
C 81.35 216.82 78.99 205.05 79.00 196.00 C 79.01 186.95 86.20 184.53 96.00 188.00
C 99.27 195.39 94.84 203.04 87.00 203.00
C 90.30 202.01 93.65 207.30 96.75 201.75 C 99.86 196.20 98.94 197.30 97.97 191.03 C 97.00 184.76 80.40 182.84 77.98 188.98 C 75.55 195.11 75.55 207.77 80.33 212.67 C 85.10 217.57 84.99 206.05 85.00 206.00 Z"/>
</g>
<g fill="#EBCA8E" fill-opacity="1.00" stroke="None">
<path d="
M 327.00 186.00 
C 311.05 182.29 305.09 207.51 321.00 212.00 C 336.91 216.49 342.52 189.61 327.00 186.00
M 326.00 192.00 
C 332.23 194.76 328.58 209.09 321.33 205.67 C 314.08 202.25 318.47 188.67 326.00 192.00 Z"/>
</g>
<g fill="#EEDAB8" fill-opacity="1.00" stroke="None">
<path d="
M 370.00 186.00 
C 361.66 182.73 360.49 194.42 358.32 198.32 C 356.15 202.23 353.13 215.01 359.97 212.97 C 366.81 210.93 364.81 202.13 371.25 210.75 C 377.69 219.37 380.67 205.15 376.93 202.07 C 373.18 199.00 375.04 187.97 370.00 186.00
M 376.00 208.00 
C 372.10 209.18 370.68 205.52 369.00 203.00
C 363.95 202.80 362.72 208.58 358.00 208.00
C 359.11 202.97 360.41 188.23 367.01 188.01 C 373.61 187.79 373.56 203.42 376.00 208.00 Z"/>
</g>
<g fill="#EBD9B1" fill-opacity="1.00" stroke="None">
<path d="
M 419.00 192.00 
C 419.93 182.71 395.14 182.54 397.00 192.00
C 409.77 191.76 398.66 203.99 404.75 210.25 C 410.85 216.50 414.63 200.96 412.00 195.00
C 415.02 194.57 416.03 191.71 419.00 192.00
M 416.00 190.00 
C 406.35 189.73 411.10 201.92 410.00 208.00
C 402.21 208.45 408.02 196.69 405.00 192.00
C 402.84 191.36 399.12 191.41 400.00 188.00
C 404.91 189.17 413.49 185.56 416.00 190.00 Z"/>
</g>
<g fill="#F1DBB9" fill-opacity="1.00" stroke="None">
<path d="
M 481.00 196.00 
C 478.23 193.12 475.84 182.28 469.25 186.25 C 462.66 190.22 469.75 197.32 467.00 204.00 C 464.25 210.68 475.70 216.43 475.00 206.00
C 480.26 203.96 479.60 216.57 485.92 212.92 C 492.25 209.28 492.25 190.89 487.67 186.33 C 483.09 181.77 480.95 194.78 481.00 196.00
M 484.00 188.00 
C 490.44 187.29 492.01 205.45 488.22 210.22 C 484.43 214.99 473.73 200.81 475.00 197.00
C 470.59 200.29 476.05 209.29 469.00 210.00
C 469.94 204.51 467.74 196.21 469.00 191.00 C 470.26 185.79 477.57 188.42 479.30 194.70 C 481.03 200.97 486.66 195.53 484.00 188.00 Z"/>
</g>
<g fill="#EAC787" fill-opacity="1.00" stroke="None">
<path d="
M 85.00 206.00 
C 85.59 204.26 85.38 204.06 87.00 203.00
C 94.84 203.04 99.27 195.39 96.00 188.00
C 86.20 184.53 79.01 186.95 79.00 196.00 C 78.99 205.05 81.35 216.82 85.00 206.00
M 90.00 193.00 
C 90.55 201.07 81.89 192.51 90.00 193.00 Z"/>
</g>
<g fill="#E9D6AE" fill-opacity="1.00" stroke="None">
<path d="
M 212.00 192.00 
C 211.35 184.88 200.10 186.23 204.23 192.77 C 208.36 199.31 208.91 198.95 210.01 206.99 C 211.11 215.04 218.47 210.06 217.22 203.22 C 215.98 196.39 224.99 196.71 223.97 190.03 C 222.95 183.34 214.80 190.54 212.00 192.00
M 213.00 196.00 
C 215.70 193.52 217.16 187.07 222.00 190.00
C 215.81 194.05 218.89 207.37 211.00 208.00
C 213.33 199.83 205.50 195.12 205.00 188.00
C 210.23 187.15 209.65 194.21 213.00 196.00 Z"/>
</g>
<g fill="#E8C688" fill-opacity="1.00" stroke="None">
<path d="
M 290.00 195.00 
C 286.61 182.33 269.85 185.87 269.00 199.00 C 268.15 212.13 287.77 216.67 290.00 203.00
C 285.06 202.10 281.29 210.52 276.77 205.23 C 272.25 199.94 276.90 195.89 278.00 191.00
C 283.76 188.92 284.84 196.07 290.00 195.00 Z"/>
</g>
<g fill="#EBC889" fill-opacity="1.00" stroke="None">
<path d="
M 444.00 187.00 
C 439.24 183.91 437.43 193.82 439.00 197.00 C 440.57 200.18 436.09 207.88 440.33 210.67 C 444.57 213.45 446.43 204.06 445.00 201.00 C 443.57 197.94 447.21 189.08 444.00 187.00 Z"/>
</g>
<g fill="#E9C37F" fill-opacity="1.00" stroke="None">
<path d="
M 526.00 199.00 
C 528.25 210.02 521.32 207.74 517.75 203.25 C 514.19 198.75 517.45 188.27 522.97 190.03 C 528.50 191.78 534.18 193.90 529.07 187.93 C 523.96 181.95 515.34 188.09 513.21 191.77 C 511.09 195.44 511.15 203.33 515.25 207.75 C 519.35 212.17 525.08 208.96 530.00 210.00
C 533.63 205.68 532.30 198.97 526.00 199.00 Z"/>
</g>
<g fill="#EAC27D" fill-opacity="1.00" stroke="None">
<path d="
M 54.00 190.00 
C 43.23 184.61 40.21 188.71 40.00 200.00 C 39.79 211.29 46.83 212.46 56.00 208.00
C 52.02 206.46 41.41 208.10 46.00 200.00
C 49.05 201.08 53.54 202.07 55.00 198.00
C 52.37 196.26 49.03 197.26 46.00 197.00
C 43.86 190.35 50.61 191.47 54.00 190.00 Z"/>
</g>
<g fill="#EBC277" fill-opacity="1.00" stroke="None">
<path d="
M 213.00 196.00 
C 209.65 194.21 210.23 187.15 205.00 188.00
C 205.50 195.12 213.33 199.83 211.00 208.00
C 218.89 207.37 215.81 194.05 222.00 190.00
C 217.16 187.07 215.70 193.52 213.00 196.00 Z"/>
</g>
<g fill="#ECC079" fill-opacity="1.00" stroke="None">
<path d="
M 376.00 208.00 
C 373.56 203.42 373.61 187.79 367.01 188.01 C 360.41 188.23 359.11 202.97 358.00 208.00
C 362.72 208.58 363.95 202.80 369.00 203.00
C 370.68 205.52 372.10 209.18 376.00 208.00 Z"/>
</g>
<g fill="#EBBF76" fill-opacity="1.00" stroke="None">
<path d="
M 416.00 190.00 
C 413.49 185.56 404.91 189.17 400.00 188.00
C 399.12 191.41 402.84 191.36 405.00 192.00
C 408.02 196.69 402.21 208.45 410.00 208.00
C 411.10 201.92 406.35 189.73 416.00 190.00 Z"/>
</g>
<g fill="#EBC177" fill-opacity="1.00" stroke="None">
<path d="
M 484.00 188.00 
C 486.66 195.53 481.03 200.97 479.30 194.70 C 477.57 188.42 470.26 185.79 469.00 191.00 C 467.74 196.21 469.94 204.51 469.00 210.00
C 476.05 209.29 470.59 200.29 475.00 197.00
C 473.73 200.81 484.43 214.99 488.22 210.22 C 492.01 205.45 490.44 187.29 484.00 188.00 Z"/>
</g>
<g fill="#EDD6D6" fill-opacity="1.00" stroke="None">
<path d="
M 178.00 200.00 
C 179.82 197.52 180.85 194.71 182.00 192.00
C 180.37 193.07 179.73 196.39 177.00 196.00
C 176.39 197.65 177.53 198.96 178.00 200.00 Z"/>
</g>
<g fill="#F2ECE5" fill-opacity="1.00" stroke="None">
<path d="
M 326.00 192.00 
C 318.47 188.67 314.08 202.25 321.33 205.67 C 328.58 209.09 332.23 194.76 326.00 192.00 Z"/>
</g>
<g fill="#EDDEDE" fill-opacity="1.00" stroke="None">
<path d="
M 520.00 194.00 
C 521.48 193.44 524.58 195.62 525.00 197.00
C 525.34 194.24 523.41 188.68 520.00 194.00 Z"/>
</g>
<g fill="#E8DDDC" fill-opacity="1.00" stroke="None">
<path d="
M 90.00 193.00 
C 81.89 192.51 90.55 201.07 90.00 193.00 Z"/>
</g>
<g fill="#F5F2F1" fill-opacity="1.00" stroke="None">
<path d="
M 131.00 193.00 
C 125.67 191.46 121.77 202.50 128.33 204.67 C 134.88 206.83 136.12 194.48 131.00 193.00 Z"/>
</g>
<g fill="#F0EFDE" fill-opacity="1.00" stroke="None">
<path d="
M 519.00 196.00 
C 519.01 196.85 518.86 201.50 519.00 202.00
C 519.06 204.30 522.03 205.55 524.00 206.00
C 523.20 202.89 524.66 199.76 525.00 197.00
C 524.58 195.62 521.48 193.44 520.00 194.00
C 519.63 194.58 519.51 195.45 519.00 196.00 Z"/>
</g>
<g fill="#EEFBE7" fill-opacity="1.00" stroke="None">
<path d="
M 284.00 202.00 
C 284.22 201.80 285.86 200.06 286.00 200.00
C 284.67 197.62 283.00 193.73 279.00 195.00
C 277.97 196.41 283.88 201.99 284.00 202.00 Z"/>
</g>
<g fill="#EFDDDE" fill-opacity="1.00" stroke="None">
<path d="
M 519.00 202.00 
C 518.86 201.50 519.01 196.85 519.00 196.00
C 516.34 198.90 517.13 199.07 519.00 202.00 Z"/>
</g>
</svg>